<mxfile host="Electron" modified="2023-11-09T08:14:31.301Z" agent="Mozilla/5.0 (Windows NT 10.0; Win64; x64) AppleWebKit/537.36 (KHTML, like Gecko) draw.io/21.5.1 Chrome/112.0.5615.204 Electron/24.6.0 Safari/537.36" etag="LXyNufgJoma3DTPRKLq9" version="21.5.1" type="device" pages="2">
  <diagram id="C5RBs43oDa-KdzZeNtuy" name="mount">
    <mxGraphModel dx="2261" dy="844" grid="1" gridSize="10" guides="1" tooltips="1" connect="1" arrows="1" fold="1" page="1" pageScale="1" pageWidth="827" pageHeight="1169" math="0" shadow="0">
      <root>
        <mxCell id="WIyWlLk6GJQsqaUBKTNV-0" />
        <mxCell id="WIyWlLk6GJQsqaUBKTNV-1" parent="WIyWlLk6GJQsqaUBKTNV-0" />
        <mxCell id="wJlR1qviSUh35QLnTvjL-226" value="" style="rounded=1;whiteSpace=wrap;html=1;strokeColor=#67AB9F;fontFamily=Helvetica;fontSize=12;fontColor=default;fillColor=none;strokeWidth=2;dashed=1;" parent="WIyWlLk6GJQsqaUBKTNV-1" vertex="1">
          <mxGeometry x="-240" y="520" width="1180" height="510" as="geometry" />
        </mxCell>
        <mxCell id="wJlR1qviSUh35QLnTvjL-224" value="" style="rounded=1;whiteSpace=wrap;html=1;strokeColor=#67AB9F;fontFamily=Helvetica;fontSize=12;fontColor=default;fillColor=none;strokeWidth=2;dashed=1;" parent="WIyWlLk6GJQsqaUBKTNV-1" vertex="1">
          <mxGeometry x="-230" y="10" width="1180" height="480" as="geometry" />
        </mxCell>
        <mxCell id="wJlR1qviSUh35QLnTvjL-4" value="struct mount" style="swimlane;fontStyle=1;align=center;verticalAlign=top;childLayout=stackLayout;horizontal=1;startSize=26;horizontalStack=0;resizeParent=1;resizeParentMax=0;resizeLast=0;collapsible=1;marginBottom=0;whiteSpace=wrap;html=1;fillColor=#d5e8d4;strokeColor=#82b366;" parent="WIyWlLk6GJQsqaUBKTNV-1" vertex="1">
          <mxGeometry x="80" y="200" width="160" height="272" as="geometry" />
        </mxCell>
        <mxCell id="wJlR1qviSUh35QLnTvjL-5" value="hlist_node mnt_hash" style="text;strokeColor=none;fillColor=none;align=left;verticalAlign=top;spacingLeft=4;spacingRight=4;overflow=hidden;rotatable=0;points=[[0,0.5],[1,0.5]];portConstraint=eastwest;whiteSpace=wrap;html=1;" parent="wJlR1qviSUh35QLnTvjL-4" vertex="1">
          <mxGeometry y="26" width="160" height="26" as="geometry" />
        </mxCell>
        <mxCell id="wJlR1qviSUh35QLnTvjL-25" value="mount *mnt_parent" style="text;strokeColor=none;fillColor=none;align=left;verticalAlign=top;spacingLeft=4;spacingRight=4;overflow=hidden;rotatable=0;points=[[0,0.5],[1,0.5]];portConstraint=eastwest;whiteSpace=wrap;html=1;" parent="wJlR1qviSUh35QLnTvjL-4" vertex="1">
          <mxGeometry y="52" width="160" height="26" as="geometry" />
        </mxCell>
        <mxCell id="wJlR1qviSUh35QLnTvjL-28" value="dentry *mnt_mountpoint" style="text;strokeColor=none;fillColor=none;align=left;verticalAlign=top;spacingLeft=4;spacingRight=4;overflow=hidden;rotatable=0;points=[[0,0.5],[1,0.5]];portConstraint=eastwest;whiteSpace=wrap;html=1;" parent="wJlR1qviSUh35QLnTvjL-4" vertex="1">
          <mxGeometry y="78" width="160" height="26" as="geometry" />
        </mxCell>
        <mxCell id="wJlR1qviSUh35QLnTvjL-6" value="" style="line;strokeWidth=1;fillColor=none;align=left;verticalAlign=middle;spacingTop=-1;spacingLeft=3;spacingRight=3;rotatable=0;labelPosition=right;points=[];portConstraint=eastwest;strokeColor=inherit;" parent="wJlR1qviSUh35QLnTvjL-4" vertex="1">
          <mxGeometry y="104" width="160" height="8" as="geometry" />
        </mxCell>
        <mxCell id="wJlR1qviSUh35QLnTvjL-7" value="vfsmount mnt" style="text;strokeColor=#d6b656;fillColor=#fff2cc;align=left;verticalAlign=top;spacingLeft=4;spacingRight=4;overflow=hidden;rotatable=0;points=[[0,0.5],[1,0.5]];portConstraint=eastwest;whiteSpace=wrap;html=1;" parent="wJlR1qviSUh35QLnTvjL-4" vertex="1">
          <mxGeometry y="112" width="160" height="26" as="geometry" />
        </mxCell>
        <mxCell id="wJlR1qviSUh35QLnTvjL-26" value="dentry *mnt_root" style="text;strokeColor=none;fillColor=none;align=left;verticalAlign=top;spacingLeft=4;spacingRight=4;overflow=hidden;rotatable=0;points=[[0,0.5],[1,0.5]];portConstraint=eastwest;whiteSpace=wrap;html=1;" parent="wJlR1qviSUh35QLnTvjL-4" vertex="1">
          <mxGeometry y="138" width="160" height="26" as="geometry" />
        </mxCell>
        <mxCell id="wJlR1qviSUh35QLnTvjL-27" value="super_block *mnt_sb" style="text;strokeColor=none;fillColor=none;align=left;verticalAlign=top;spacingLeft=4;spacingRight=4;overflow=hidden;rotatable=0;points=[[0,0.5],[1,0.5]];portConstraint=eastwest;whiteSpace=wrap;html=1;" parent="wJlR1qviSUh35QLnTvjL-4" vertex="1">
          <mxGeometry y="164" width="160" height="26" as="geometry" />
        </mxCell>
        <mxCell id="wJlR1qviSUh35QLnTvjL-9" value="" style="line;strokeWidth=1;fillColor=none;align=left;verticalAlign=middle;spacingTop=-1;spacingLeft=3;spacingRight=3;rotatable=0;labelPosition=right;points=[];portConstraint=eastwest;strokeColor=inherit;" parent="wJlR1qviSUh35QLnTvjL-4" vertex="1">
          <mxGeometry y="190" width="160" height="4" as="geometry" />
        </mxCell>
        <mxCell id="wJlR1qviSUh35QLnTvjL-19" value="list_head mnt_mounts" style="text;strokeColor=none;fillColor=none;align=left;verticalAlign=top;spacingLeft=4;spacingRight=4;overflow=hidden;rotatable=0;points=[[0,0.5],[1,0.5]];portConstraint=eastwest;whiteSpace=wrap;html=1;" parent="wJlR1qviSUh35QLnTvjL-4" vertex="1">
          <mxGeometry y="194" width="160" height="26" as="geometry" />
        </mxCell>
        <mxCell id="wJlR1qviSUh35QLnTvjL-186" value="list_head mnt_child" style="text;strokeColor=none;fillColor=none;align=left;verticalAlign=top;spacingLeft=4;spacingRight=4;overflow=hidden;rotatable=0;points=[[0,0.5],[1,0.5]];portConstraint=eastwest;whiteSpace=wrap;html=1;" parent="wJlR1qviSUh35QLnTvjL-4" vertex="1">
          <mxGeometry y="220" width="160" height="26" as="geometry" />
        </mxCell>
        <mxCell id="wJlR1qviSUh35QLnTvjL-187" value="list_head mnt_instance" style="text;strokeColor=none;fillColor=none;align=left;verticalAlign=top;spacingLeft=4;spacingRight=4;overflow=hidden;rotatable=0;points=[[0,0.5],[1,0.5]];portConstraint=eastwest;whiteSpace=wrap;html=1;" parent="wJlR1qviSUh35QLnTvjL-4" vertex="1">
          <mxGeometry y="246" width="160" height="26" as="geometry" />
        </mxCell>
        <mxCell id="wJlR1qviSUh35QLnTvjL-29" value="super_block" style="swimlane;fontStyle=1;align=center;verticalAlign=top;childLayout=stackLayout;horizontal=1;startSize=26;horizontalStack=0;resizeParent=1;resizeParentMax=0;resizeLast=0;collapsible=1;marginBottom=0;whiteSpace=wrap;html=1;fillColor=#d80073;strokeColor=#A50040;fontColor=#ffffff;" parent="WIyWlLk6GJQsqaUBKTNV-1" vertex="1">
          <mxGeometry x="360" y="320" width="160" height="86" as="geometry" />
        </mxCell>
        <mxCell id="wJlR1qviSUh35QLnTvjL-30" value="struct dentry&#x9;&#x9;*s_root" style="text;strokeColor=none;fillColor=none;align=left;verticalAlign=top;spacingLeft=4;spacingRight=4;overflow=hidden;rotatable=0;points=[[0,0.5],[1,0.5]];portConstraint=eastwest;whiteSpace=wrap;html=1;" parent="wJlR1qviSUh35QLnTvjL-29" vertex="1">
          <mxGeometry y="26" width="160" height="26" as="geometry" />
        </mxCell>
        <mxCell id="wJlR1qviSUh35QLnTvjL-31" value="" style="line;strokeWidth=1;fillColor=none;align=left;verticalAlign=middle;spacingTop=-1;spacingLeft=3;spacingRight=3;rotatable=0;labelPosition=right;points=[];portConstraint=eastwest;strokeColor=inherit;" parent="wJlR1qviSUh35QLnTvjL-29" vertex="1">
          <mxGeometry y="52" width="160" height="8" as="geometry" />
        </mxCell>
        <mxCell id="kUFLpfmWcjsIF87fxjAD-0" value="s_mounts" style="text;strokeColor=none;fillColor=none;align=left;verticalAlign=top;spacingLeft=4;spacingRight=4;overflow=hidden;rotatable=0;points=[[0,0.5],[1,0.5]];portConstraint=eastwest;whiteSpace=wrap;html=1;fontSize=12;fontFamily=Helvetica;fontColor=default;" parent="wJlR1qviSUh35QLnTvjL-29" vertex="1">
          <mxGeometry y="60" width="160" height="26" as="geometry" />
        </mxCell>
        <mxCell id="wJlR1qviSUh35QLnTvjL-164" style="edgeStyle=orthogonalEdgeStyle;rounded=0;orthogonalLoop=1;jettySize=auto;html=1;entryX=0.5;entryY=0;entryDx=0;entryDy=0;" parent="WIyWlLk6GJQsqaUBKTNV-1" source="wJlR1qviSUh35QLnTvjL-33" target="wJlR1qviSUh35QLnTvjL-29" edge="1">
          <mxGeometry relative="1" as="geometry" />
        </mxCell>
        <mxCell id="wJlR1qviSUh35QLnTvjL-33" value="æ ¹dentry" style="swimlane;fontStyle=1;align=center;verticalAlign=top;childLayout=stackLayout;horizontal=1;startSize=140;horizontalStack=0;resizeParent=1;resizeParentMax=0;resizeLast=0;collapsible=1;marginBottom=0;whiteSpace=wrap;html=1;fillColor=#f8cecc;strokeColor=#b85450;" parent="WIyWlLk6GJQsqaUBKTNV-1" vertex="1">
          <mxGeometry x="360" y="130" width="160" height="30" as="geometry" />
        </mxCell>
        <mxCell id="wJlR1qviSUh35QLnTvjL-37" value="denty" style="swimlane;fontStyle=1;align=center;verticalAlign=top;childLayout=stackLayout;horizontal=1;startSize=26;horizontalStack=0;resizeParent=1;resizeParentMax=0;resizeLast=0;collapsible=1;marginBottom=0;whiteSpace=wrap;html=1;fillColor=#ffe6cc;strokeColor=#d79b00;" parent="WIyWlLk6GJQsqaUBKTNV-1" vertex="1">
          <mxGeometry x="660" y="70" width="160" height="26" as="geometry" />
        </mxCell>
        <mxCell id="wJlR1qviSUh35QLnTvjL-42" value="mountpoint_hashtable[H]" style="html=1;whiteSpace=wrap;fillColor=#cce5ff;strokeColor=#36393d;" parent="WIyWlLk6GJQsqaUBKTNV-1" vertex="1">
          <mxGeometry x="80" y="40" width="160" height="40" as="geometry" />
        </mxCell>
        <mxCell id="wJlR1qviSUh35QLnTvjL-148" style="edgeStyle=orthogonalEdgeStyle;rounded=0;orthogonalLoop=1;jettySize=auto;html=1;entryX=1;entryY=0.5;entryDx=0;entryDy=0;strokeColor=#000000;exitX=1;exitY=0.5;exitDx=0;exitDy=0;dashed=1;startArrow=classic;startFill=1;" parent="WIyWlLk6GJQsqaUBKTNV-1" source="wJlR1qviSUh35QLnTvjL-43" target="wJlR1qviSUh35QLnTvjL-45" edge="1">
          <mxGeometry relative="1" as="geometry">
            <mxPoint x="90" y="50" as="sourcePoint" />
            <Array as="points">
              <mxPoint x="20" y="60" />
              <mxPoint x="20" y="159" />
            </Array>
          </mxGeometry>
        </mxCell>
        <mxCell id="wJlR1qviSUh35QLnTvjL-43" value="mountpoint_hashtable[L]" style="html=1;whiteSpace=wrap;fillColor=#eeeeee;strokeColor=#36393d;" parent="WIyWlLk6GJQsqaUBKTNV-1" vertex="1">
          <mxGeometry x="-160" y="40" width="160" height="40" as="geometry" />
        </mxCell>
        <mxCell id="wJlR1qviSUh35QLnTvjL-44" value="struct mountpoint" style="swimlane;fontStyle=1;align=center;verticalAlign=top;childLayout=stackLayout;horizontal=1;startSize=26;horizontalStack=0;resizeParent=1;resizeParentMax=0;resizeLast=0;collapsible=1;marginBottom=0;whiteSpace=wrap;html=1;fillColor=#ffcccc;strokeColor=#36393d;" parent="WIyWlLk6GJQsqaUBKTNV-1" vertex="1">
          <mxGeometry x="-160" y="120" width="160" height="140" as="geometry" />
        </mxCell>
        <mxCell id="wJlR1qviSUh35QLnTvjL-45" value="hlist_node m_hash" style="text;strokeColor=none;fillColor=none;align=left;verticalAlign=top;spacingLeft=4;spacingRight=4;overflow=hidden;rotatable=0;points=[[0,0.5],[1,0.5]];portConstraint=eastwest;whiteSpace=wrap;html=1;" parent="wJlR1qviSUh35QLnTvjL-44" vertex="1">
          <mxGeometry y="26" width="160" height="26" as="geometry" />
        </mxCell>
        <mxCell id="wJlR1qviSUh35QLnTvjL-46" value="" style="line;strokeWidth=1;fillColor=none;align=left;verticalAlign=middle;spacingTop=-1;spacingLeft=3;spacingRight=3;rotatable=0;labelPosition=right;points=[];portConstraint=eastwest;strokeColor=inherit;" parent="wJlR1qviSUh35QLnTvjL-44" vertex="1">
          <mxGeometry y="52" width="160" height="8" as="geometry" />
        </mxCell>
        <mxCell id="wJlR1qviSUh35QLnTvjL-47" value="dentry *m_dentry" style="text;strokeColor=none;fillColor=none;align=left;verticalAlign=top;spacingLeft=4;spacingRight=4;overflow=hidden;rotatable=0;points=[[0,0.5],[1,0.5]];portConstraint=eastwest;whiteSpace=wrap;html=1;" parent="wJlR1qviSUh35QLnTvjL-44" vertex="1">
          <mxGeometry y="60" width="160" height="26" as="geometry" />
        </mxCell>
        <mxCell id="wJlR1qviSUh35QLnTvjL-52" value="hlist_head m_list" style="text;strokeColor=none;fillColor=none;align=left;verticalAlign=top;spacingLeft=4;spacingRight=4;overflow=hidden;rotatable=0;points=[[0,0.5],[1,0.5]];portConstraint=eastwest;whiteSpace=wrap;html=1;" parent="wJlR1qviSUh35QLnTvjL-44" vertex="1">
          <mxGeometry y="86" width="160" height="26" as="geometry" />
        </mxCell>
        <mxCell id="wJlR1qviSUh35QLnTvjL-53" value="int m_count" style="text;strokeColor=none;fillColor=none;align=left;verticalAlign=top;spacingLeft=4;spacingRight=4;overflow=hidden;rotatable=0;points=[[0,0.5],[1,0.5]];portConstraint=eastwest;whiteSpace=wrap;html=1;" parent="wJlR1qviSUh35QLnTvjL-44" vertex="1">
          <mxGeometry y="112" width="160" height="28" as="geometry" />
        </mxCell>
        <mxCell id="wJlR1qviSUh35QLnTvjL-58" style="edgeStyle=orthogonalEdgeStyle;rounded=0;orthogonalLoop=1;jettySize=auto;html=1;exitX=0.5;exitY=1;exitDx=0;exitDy=0;" parent="WIyWlLk6GJQsqaUBKTNV-1" source="wJlR1qviSUh35QLnTvjL-37" target="wJlR1qviSUh35QLnTvjL-37" edge="1">
          <mxGeometry relative="1" as="geometry" />
        </mxCell>
        <mxCell id="wJlR1qviSUh35QLnTvjL-59" value="denty" style="swimlane;fontStyle=1;align=center;verticalAlign=top;childLayout=stackLayout;horizontal=1;startSize=26;horizontalStack=0;resizeParent=1;resizeParentMax=0;resizeLast=0;collapsible=1;marginBottom=0;whiteSpace=wrap;html=1;fillColor=#ffe6cc;strokeColor=#d79b00;" parent="WIyWlLk6GJQsqaUBKTNV-1" vertex="1">
          <mxGeometry x="667" y="174" width="160" height="26" as="geometry" />
        </mxCell>
        <mxCell id="wJlR1qviSUh35QLnTvjL-76" style="edgeStyle=orthogonalEdgeStyle;rounded=0;orthogonalLoop=1;jettySize=auto;html=1;exitX=0.5;exitY=1;exitDx=0;exitDy=0;" parent="WIyWlLk6GJQsqaUBKTNV-1" edge="1">
          <mxGeometry relative="1" as="geometry">
            <mxPoint x="640" y="506" as="sourcePoint" />
            <mxPoint x="640" y="506" as="targetPoint" />
          </mxGeometry>
        </mxCell>
        <mxCell id="wJlR1qviSUh35QLnTvjL-85" value="mnt&lt;br&gt;&lt;font color=&quot;#ff0000&quot;&gt;d_flags |= DCACHE_MOUNTED&lt;/font&gt;" style="text;html=1;align=left;verticalAlign=middle;resizable=0;points=[];autosize=1;strokeColor=none;fillColor=none;" parent="WIyWlLk6GJQsqaUBKTNV-1" vertex="1">
          <mxGeometry x="760" y="200" width="200" height="40" as="geometry" />
        </mxCell>
        <mxCell id="wJlR1qviSUh35QLnTvjL-86" style="edgeStyle=orthogonalEdgeStyle;rounded=0;orthogonalLoop=1;jettySize=auto;html=1;entryX=0;entryY=0.75;entryDx=0;entryDy=0;strokeColor=#B3B3B3;" parent="WIyWlLk6GJQsqaUBKTNV-1" source="wJlR1qviSUh35QLnTvjL-47" target="wJlR1qviSUh35QLnTvjL-59" edge="1">
          <mxGeometry relative="1" as="geometry" />
        </mxCell>
        <mxCell id="wJlR1qviSUh35QLnTvjL-113" value="struct mount" style="swimlane;fontStyle=1;align=center;verticalAlign=top;childLayout=stackLayout;horizontal=1;startSize=26;horizontalStack=0;resizeParent=1;resizeParentMax=0;resizeLast=0;collapsible=1;marginBottom=0;whiteSpace=wrap;html=1;fillColor=#d5e8d4;strokeColor=#82b366;" parent="WIyWlLk6GJQsqaUBKTNV-1" vertex="1">
          <mxGeometry x="80" y="690" width="160" height="324" as="geometry" />
        </mxCell>
        <mxCell id="wJlR1qviSUh35QLnTvjL-114" value="hlist_node mnt_hash" style="text;strokeColor=none;fillColor=none;align=left;verticalAlign=top;spacingLeft=4;spacingRight=4;overflow=hidden;rotatable=0;points=[[0,0.5],[1,0.5]];portConstraint=eastwest;whiteSpace=wrap;html=1;" parent="wJlR1qviSUh35QLnTvjL-113" vertex="1">
          <mxGeometry y="26" width="160" height="26" as="geometry" />
        </mxCell>
        <mxCell id="wJlR1qviSUh35QLnTvjL-115" value="mount *mnt_parent" style="text;strokeColor=none;fillColor=none;align=left;verticalAlign=top;spacingLeft=4;spacingRight=4;overflow=hidden;rotatable=0;points=[[0,0.5],[1,0.5]];portConstraint=eastwest;whiteSpace=wrap;html=1;" parent="wJlR1qviSUh35QLnTvjL-113" vertex="1">
          <mxGeometry y="52" width="160" height="26" as="geometry" />
        </mxCell>
        <mxCell id="wJlR1qviSUh35QLnTvjL-116" value="&lt;font color=&quot;#ff0000&quot;&gt;dentry *mnt_mountpoint&lt;/font&gt;" style="text;strokeColor=none;fillColor=none;align=left;verticalAlign=top;spacingLeft=4;spacingRight=4;overflow=hidden;rotatable=0;points=[[0,0.5],[1,0.5]];portConstraint=eastwest;whiteSpace=wrap;html=1;" parent="wJlR1qviSUh35QLnTvjL-113" vertex="1">
          <mxGeometry y="78" width="160" height="26" as="geometry" />
        </mxCell>
        <mxCell id="wJlR1qviSUh35QLnTvjL-117" value="" style="line;strokeWidth=1;fillColor=none;align=left;verticalAlign=middle;spacingTop=-1;spacingLeft=3;spacingRight=3;rotatable=0;labelPosition=right;points=[];portConstraint=eastwest;strokeColor=inherit;" parent="wJlR1qviSUh35QLnTvjL-113" vertex="1">
          <mxGeometry y="104" width="160" height="8" as="geometry" />
        </mxCell>
        <mxCell id="wJlR1qviSUh35QLnTvjL-118" value="vfsmount mnt" style="text;strokeColor=#d6b656;fillColor=#fff2cc;align=left;verticalAlign=top;spacingLeft=4;spacingRight=4;overflow=hidden;rotatable=0;points=[[0,0.5],[1,0.5]];portConstraint=eastwest;whiteSpace=wrap;html=1;" parent="wJlR1qviSUh35QLnTvjL-113" vertex="1">
          <mxGeometry y="112" width="160" height="26" as="geometry" />
        </mxCell>
        <mxCell id="wJlR1qviSUh35QLnTvjL-119" value="dentry *mnt_root" style="text;strokeColor=none;fillColor=none;align=left;verticalAlign=top;spacingLeft=4;spacingRight=4;overflow=hidden;rotatable=0;points=[[0,0.5],[1,0.5]];portConstraint=eastwest;whiteSpace=wrap;html=1;" parent="wJlR1qviSUh35QLnTvjL-113" vertex="1">
          <mxGeometry y="138" width="160" height="26" as="geometry" />
        </mxCell>
        <mxCell id="wJlR1qviSUh35QLnTvjL-120" value="super_block *mnt_sb" style="text;strokeColor=none;fillColor=none;align=left;verticalAlign=top;spacingLeft=4;spacingRight=4;overflow=hidden;rotatable=0;points=[[0,0.5],[1,0.5]];portConstraint=eastwest;whiteSpace=wrap;html=1;" parent="wJlR1qviSUh35QLnTvjL-113" vertex="1">
          <mxGeometry y="164" width="160" height="26" as="geometry" />
        </mxCell>
        <mxCell id="wJlR1qviSUh35QLnTvjL-121" value="" style="line;strokeWidth=1;fillColor=none;align=left;verticalAlign=middle;spacingTop=-1;spacingLeft=3;spacingRight=3;rotatable=0;labelPosition=right;points=[];portConstraint=eastwest;strokeColor=inherit;" parent="wJlR1qviSUh35QLnTvjL-113" vertex="1">
          <mxGeometry y="190" width="160" height="4" as="geometry" />
        </mxCell>
        <mxCell id="wJlR1qviSUh35QLnTvjL-122" value="list_head mnt_mounts" style="text;strokeColor=none;fillColor=none;align=left;verticalAlign=top;spacingLeft=4;spacingRight=4;overflow=hidden;rotatable=0;points=[[0,0.5],[1,0.5]];portConstraint=eastwest;whiteSpace=wrap;html=1;" parent="wJlR1qviSUh35QLnTvjL-113" vertex="1">
          <mxGeometry y="194" width="160" height="26" as="geometry" />
        </mxCell>
        <mxCell id="wJlR1qviSUh35QLnTvjL-190" value="list_head mnt_child" style="text;strokeColor=none;fillColor=none;align=left;verticalAlign=top;spacingLeft=4;spacingRight=4;overflow=hidden;rotatable=0;points=[[0,0.5],[1,0.5]];portConstraint=eastwest;whiteSpace=wrap;html=1;" parent="wJlR1qviSUh35QLnTvjL-113" vertex="1">
          <mxGeometry y="220" width="160" height="26" as="geometry" />
        </mxCell>
        <mxCell id="wJlR1qviSUh35QLnTvjL-191" value="list_head mnt_instance" style="text;strokeColor=none;fillColor=none;align=left;verticalAlign=top;spacingLeft=4;spacingRight=4;overflow=hidden;rotatable=0;points=[[0,0.5],[1,0.5]];portConstraint=eastwest;whiteSpace=wrap;html=1;" parent="wJlR1qviSUh35QLnTvjL-113" vertex="1">
          <mxGeometry y="246" width="160" height="26" as="geometry" />
        </mxCell>
        <mxCell id="wJlR1qviSUh35QLnTvjL-142" value="mountpoint *mnt_mp" style="text;strokeColor=none;fillColor=none;align=left;verticalAlign=top;spacingLeft=4;spacingRight=4;overflow=hidden;rotatable=0;points=[[0,0.5],[1,0.5]];portConstraint=eastwest;whiteSpace=wrap;html=1;" parent="wJlR1qviSUh35QLnTvjL-113" vertex="1">
          <mxGeometry y="272" width="160" height="26" as="geometry" />
        </mxCell>
        <mxCell id="wJlR1qviSUh35QLnTvjL-145" value="hlist_node mnt_mp_list" style="text;strokeColor=none;fillColor=none;align=left;verticalAlign=top;spacingLeft=4;spacingRight=4;overflow=hidden;rotatable=0;points=[[0,0.5],[1,0.5]];portConstraint=eastwest;whiteSpace=wrap;html=1;" parent="wJlR1qviSUh35QLnTvjL-113" vertex="1">
          <mxGeometry y="298" width="160" height="26" as="geometry" />
        </mxCell>
        <mxCell id="wJlR1qviSUh35QLnTvjL-123" value="super_block" style="swimlane;fontStyle=1;align=center;verticalAlign=top;childLayout=stackLayout;horizontal=1;startSize=26;horizontalStack=0;resizeParent=1;resizeParentMax=0;resizeLast=0;collapsible=1;marginBottom=0;whiteSpace=wrap;html=1;fillColor=#d80073;strokeColor=#A50040;fontColor=#ffffff;" parent="WIyWlLk6GJQsqaUBKTNV-1" vertex="1">
          <mxGeometry x="360" y="810" width="160" height="86" as="geometry" />
        </mxCell>
        <mxCell id="wJlR1qviSUh35QLnTvjL-124" value="struct dentry *s_root" style="text;strokeColor=none;fillColor=none;align=left;verticalAlign=top;spacingLeft=4;spacingRight=4;overflow=hidden;rotatable=0;points=[[0,0.5],[1,0.5]];portConstraint=eastwest;whiteSpace=wrap;html=1;" parent="wJlR1qviSUh35QLnTvjL-123" vertex="1">
          <mxGeometry y="26" width="160" height="26" as="geometry" />
        </mxCell>
        <mxCell id="wJlR1qviSUh35QLnTvjL-125" value="" style="line;strokeWidth=1;fillColor=none;align=left;verticalAlign=middle;spacingTop=-1;spacingLeft=3;spacingRight=3;rotatable=0;labelPosition=right;points=[];portConstraint=eastwest;strokeColor=inherit;" parent="wJlR1qviSUh35QLnTvjL-123" vertex="1">
          <mxGeometry y="52" width="160" height="8" as="geometry" />
        </mxCell>
        <mxCell id="kUFLpfmWcjsIF87fxjAD-2" value="s_mounts" style="text;strokeColor=none;fillColor=none;align=left;verticalAlign=top;spacingLeft=4;spacingRight=4;overflow=hidden;rotatable=0;points=[[0,0.5],[1,0.5]];portConstraint=eastwest;whiteSpace=wrap;html=1;fontSize=12;fontFamily=Helvetica;fontColor=default;" parent="wJlR1qviSUh35QLnTvjL-123" vertex="1">
          <mxGeometry y="60" width="160" height="26" as="geometry" />
        </mxCell>
        <mxCell id="Vl4s1iy8BvapvnwAddML-2" style="edgeStyle=orthogonalEdgeStyle;rounded=0;orthogonalLoop=1;jettySize=auto;html=1;entryX=0.5;entryY=0;entryDx=0;entryDy=0;" parent="WIyWlLk6GJQsqaUBKTNV-1" source="wJlR1qviSUh35QLnTvjL-127" target="wJlR1qviSUh35QLnTvjL-123" edge="1">
          <mxGeometry relative="1" as="geometry" />
        </mxCell>
        <mxCell id="Vl4s1iy8BvapvnwAddML-3" value="d_sb" style="edgeLabel;html=1;align=center;verticalAlign=middle;resizable=0;points=[];" parent="Vl4s1iy8BvapvnwAddML-2" vertex="1" connectable="0">
          <mxGeometry x="-0.7375" y="-2" relative="1" as="geometry">
            <mxPoint as="offset" />
          </mxGeometry>
        </mxCell>
        <mxCell id="wJlR1qviSUh35QLnTvjL-127" value="æ ¹dentry" style="swimlane;fontStyle=1;align=center;verticalAlign=top;childLayout=stackLayout;horizontal=1;startSize=140;horizontalStack=0;resizeParent=1;resizeParentMax=0;resizeLast=0;collapsible=1;marginBottom=0;whiteSpace=wrap;html=1;fillColor=#f8cecc;strokeColor=#b85450;" parent="WIyWlLk6GJQsqaUBKTNV-1" vertex="1">
          <mxGeometry x="360" y="620" width="160" height="30" as="geometry" />
        </mxCell>
        <mxCell id="wJlR1qviSUh35QLnTvjL-128" value="denty" style="swimlane;fontStyle=1;align=center;verticalAlign=top;childLayout=stackLayout;horizontal=1;startSize=26;horizontalStack=0;resizeParent=1;resizeParentMax=0;resizeLast=0;collapsible=1;marginBottom=0;whiteSpace=wrap;html=1;fillColor=#ffe6cc;strokeColor=#d79b00;" parent="WIyWlLk6GJQsqaUBKTNV-1" vertex="1">
          <mxGeometry x="560" y="560" width="160" height="26" as="geometry" />
        </mxCell>
        <mxCell id="wJlR1qviSUh35QLnTvjL-135" style="edgeStyle=orthogonalEdgeStyle;rounded=0;orthogonalLoop=1;jettySize=auto;html=1;exitX=0.5;exitY=1;exitDx=0;exitDy=0;" parent="WIyWlLk6GJQsqaUBKTNV-1" source="wJlR1qviSUh35QLnTvjL-128" target="wJlR1qviSUh35QLnTvjL-128" edge="1">
          <mxGeometry relative="1" as="geometry" />
        </mxCell>
        <mxCell id="wJlR1qviSUh35QLnTvjL-136" value="denty" style="swimlane;fontStyle=1;align=center;verticalAlign=top;childLayout=stackLayout;horizontal=1;startSize=26;horizontalStack=0;resizeParent=1;resizeParentMax=0;resizeLast=0;collapsible=1;marginBottom=0;whiteSpace=wrap;html=1;fillColor=#ffe6cc;strokeColor=#d79b00;" parent="WIyWlLk6GJQsqaUBKTNV-1" vertex="1">
          <mxGeometry x="560" y="664" width="160" height="26" as="geometry" />
        </mxCell>
        <mxCell id="wJlR1qviSUh35QLnTvjL-140" style="edgeStyle=orthogonalEdgeStyle;rounded=0;orthogonalLoop=1;jettySize=auto;html=1;entryX=0.5;entryY=1;entryDx=0;entryDy=0;strokeColor=#000000;strokeWidth=2;" parent="WIyWlLk6GJQsqaUBKTNV-1" source="wJlR1qviSUh35QLnTvjL-116" target="wJlR1qviSUh35QLnTvjL-59" edge="1">
          <mxGeometry relative="1" as="geometry" />
        </mxCell>
        <mxCell id="wJlR1qviSUh35QLnTvjL-141" style="edgeStyle=orthogonalEdgeStyle;rounded=0;orthogonalLoop=1;jettySize=auto;html=1;entryX=-0.002;entryY=0.074;entryDx=0;entryDy=0;entryPerimeter=0;strokeWidth=2;" parent="WIyWlLk6GJQsqaUBKTNV-1" source="wJlR1qviSUh35QLnTvjL-115" target="wJlR1qviSUh35QLnTvjL-4" edge="1">
          <mxGeometry relative="1" as="geometry" />
        </mxCell>
        <mxCell id="wJlR1qviSUh35QLnTvjL-144" style="edgeStyle=orthogonalEdgeStyle;rounded=0;orthogonalLoop=1;jettySize=auto;html=1;entryX=-0.007;entryY=0.081;entryDx=0;entryDy=0;entryPerimeter=0;strokeColor=#B5739D;exitX=0;exitY=0.5;exitDx=0;exitDy=0;" parent="WIyWlLk6GJQsqaUBKTNV-1" source="wJlR1qviSUh35QLnTvjL-142" target="wJlR1qviSUh35QLnTvjL-44" edge="1">
          <mxGeometry relative="1" as="geometry">
            <mxPoint x="40" y="923" as="sourcePoint" />
            <Array as="points">
              <mxPoint x="-180" y="975" />
              <mxPoint x="-180" y="131" />
            </Array>
          </mxGeometry>
        </mxCell>
        <mxCell id="wJlR1qviSUh35QLnTvjL-146" style="edgeStyle=orthogonalEdgeStyle;rounded=0;orthogonalLoop=1;jettySize=auto;html=1;dashed=1;startArrow=classic;startFill=1;exitX=0;exitY=0.5;exitDx=0;exitDy=0;entryX=0;entryY=0.5;entryDx=0;entryDy=0;" parent="WIyWlLk6GJQsqaUBKTNV-1" source="wJlR1qviSUh35QLnTvjL-145" target="wJlR1qviSUh35QLnTvjL-52" edge="1">
          <mxGeometry relative="1" as="geometry">
            <mxPoint x="40" y="949" as="sourcePoint" />
            <mxPoint x="-240" y="220" as="targetPoint" />
            <Array as="points">
              <mxPoint x="-200" y="1001" />
              <mxPoint x="-200" y="220" />
              <mxPoint x="-160" y="220" />
            </Array>
          </mxGeometry>
        </mxCell>
        <mxCell id="wJlR1qviSUh35QLnTvjL-150" style="edgeStyle=orthogonalEdgeStyle;rounded=0;orthogonalLoop=1;jettySize=auto;html=1;entryX=0;entryY=0.5;entryDx=0;entryDy=0;strokeColor=#000000;dashed=1;startArrow=classic;startFill=1;" parent="WIyWlLk6GJQsqaUBKTNV-1" source="wJlR1qviSUh35QLnTvjL-45" target="wJlR1qviSUh35QLnTvjL-43" edge="1">
          <mxGeometry relative="1" as="geometry">
            <Array as="points">
              <mxPoint x="-190" y="159" />
              <mxPoint x="-190" y="60" />
            </Array>
          </mxGeometry>
        </mxCell>
        <mxCell id="wJlR1qviSUh35QLnTvjL-151" value="" style="curved=1;endArrow=classic;html=1;rounded=0;exitX=1;exitY=0.5;exitDx=0;exitDy=0;entryX=0;entryY=0.5;entryDx=0;entryDy=0;dashed=1;startArrow=classic;startFill=1;" parent="WIyWlLk6GJQsqaUBKTNV-1" source="wJlR1qviSUh35QLnTvjL-33" target="wJlR1qviSUh35QLnTvjL-37" edge="1">
          <mxGeometry width="50" height="50" relative="1" as="geometry">
            <mxPoint x="530" y="150" as="sourcePoint" />
            <mxPoint x="580" y="100" as="targetPoint" />
            <Array as="points">
              <mxPoint x="550" y="130" />
              <mxPoint x="570" y="90" />
            </Array>
          </mxGeometry>
        </mxCell>
        <mxCell id="wJlR1qviSUh35QLnTvjL-152" value="" style="curved=1;endArrow=classic;html=1;rounded=0;exitX=1;exitY=0.5;exitDx=0;exitDy=0;entryX=0;entryY=0.5;entryDx=0;entryDy=0;dashed=1;startArrow=classic;startFill=1;" parent="WIyWlLk6GJQsqaUBKTNV-1" source="wJlR1qviSUh35QLnTvjL-33" target="wJlR1qviSUh35QLnTvjL-59" edge="1">
          <mxGeometry width="50" height="50" relative="1" as="geometry">
            <mxPoint x="520" y="192" as="sourcePoint" />
            <mxPoint x="660" y="130" as="targetPoint" />
            <Array as="points">
              <mxPoint x="550" y="177" />
              <mxPoint x="590" y="140" />
              <mxPoint x="620" y="160" />
            </Array>
          </mxGeometry>
        </mxCell>
        <mxCell id="wJlR1qviSUh35QLnTvjL-154" style="edgeStyle=orthogonalEdgeStyle;rounded=0;orthogonalLoop=1;jettySize=auto;html=1;entryX=0;entryY=0.75;entryDx=0;entryDy=0;" parent="WIyWlLk6GJQsqaUBKTNV-1" source="wJlR1qviSUh35QLnTvjL-26" target="wJlR1qviSUh35QLnTvjL-33" edge="1">
          <mxGeometry relative="1" as="geometry" />
        </mxCell>
        <mxCell id="wJlR1qviSUh35QLnTvjL-155" style="edgeStyle=orthogonalEdgeStyle;rounded=0;orthogonalLoop=1;jettySize=auto;html=1;entryX=0;entryY=0.25;entryDx=0;entryDy=0;" parent="WIyWlLk6GJQsqaUBKTNV-1" source="wJlR1qviSUh35QLnTvjL-27" target="wJlR1qviSUh35QLnTvjL-29" edge="1">
          <mxGeometry relative="1" as="geometry">
            <Array as="points">
              <mxPoint x="310" y="377" />
              <mxPoint x="310" y="341" />
            </Array>
          </mxGeometry>
        </mxCell>
        <mxCell id="wJlR1qviSUh35QLnTvjL-156" value="d_sb" style="text;html=1;align=center;verticalAlign=middle;resizable=0;points=[];autosize=1;strokeColor=none;fillColor=none;" parent="WIyWlLk6GJQsqaUBKTNV-1" vertex="1">
          <mxGeometry x="430" y="160" width="50" height="30" as="geometry" />
        </mxCell>
        <mxCell id="wJlR1qviSUh35QLnTvjL-158" style="edgeStyle=orthogonalEdgeStyle;rounded=0;orthogonalLoop=1;jettySize=auto;html=1;entryX=0;entryY=0.75;entryDx=0;entryDy=0;" parent="WIyWlLk6GJQsqaUBKTNV-1" source="wJlR1qviSUh35QLnTvjL-119" target="wJlR1qviSUh35QLnTvjL-127" edge="1">
          <mxGeometry relative="1" as="geometry">
            <mxPoint x="350" y="650" as="targetPoint" />
          </mxGeometry>
        </mxCell>
        <mxCell id="wJlR1qviSUh35QLnTvjL-159" style="edgeStyle=orthogonalEdgeStyle;rounded=0;orthogonalLoop=1;jettySize=auto;html=1;entryX=0;entryY=0.25;entryDx=0;entryDy=0;" parent="WIyWlLk6GJQsqaUBKTNV-1" source="wJlR1qviSUh35QLnTvjL-120" target="wJlR1qviSUh35QLnTvjL-123" edge="1">
          <mxGeometry relative="1" as="geometry">
            <Array as="points">
              <mxPoint x="310" y="867" />
              <mxPoint x="310" y="831" />
            </Array>
          </mxGeometry>
        </mxCell>
        <mxCell id="wJlR1qviSUh35QLnTvjL-165" style="edgeStyle=orthogonalEdgeStyle;rounded=0;orthogonalLoop=1;jettySize=auto;html=1;entryX=0.114;entryY=0.997;entryDx=0;entryDy=0;entryPerimeter=0;strokeColor=#EA6B66;" parent="WIyWlLk6GJQsqaUBKTNV-1" source="wJlR1qviSUh35QLnTvjL-30" target="wJlR1qviSUh35QLnTvjL-33" edge="1">
          <mxGeometry relative="1" as="geometry" />
        </mxCell>
        <mxCell id="wJlR1qviSUh35QLnTvjL-166" style="edgeStyle=orthogonalEdgeStyle;rounded=0;orthogonalLoop=1;jettySize=auto;html=1;entryX=0;entryY=0.5;entryDx=0;entryDy=0;strokeColor=#000000;dashed=1;startArrow=classic;startFill=1;exitX=0;exitY=0.5;exitDx=0;exitDy=0;" parent="WIyWlLk6GJQsqaUBKTNV-1" source="wJlR1qviSUh35QLnTvjL-5" target="wJlR1qviSUh35QLnTvjL-42" edge="1">
          <mxGeometry relative="1" as="geometry">
            <mxPoint x="50" y="179" as="sourcePoint" />
            <mxPoint x="50" y="80" as="targetPoint" />
            <Array as="points">
              <mxPoint x="50" y="239" />
              <mxPoint x="50" y="60" />
            </Array>
          </mxGeometry>
        </mxCell>
        <mxCell id="wJlR1qviSUh35QLnTvjL-167" style="edgeStyle=orthogonalEdgeStyle;rounded=0;orthogonalLoop=1;jettySize=auto;html=1;entryX=1;entryY=0.5;entryDx=0;entryDy=0;strokeColor=#000000;exitX=1;exitY=0.5;exitDx=0;exitDy=0;dashed=1;startArrow=classic;startFill=1;" parent="WIyWlLk6GJQsqaUBKTNV-1" target="wJlR1qviSUh35QLnTvjL-5" edge="1">
          <mxGeometry relative="1" as="geometry">
            <mxPoint x="240" y="61" as="sourcePoint" />
            <mxPoint x="240" y="160" as="targetPoint" />
            <Array as="points">
              <mxPoint x="260" y="61" />
              <mxPoint x="260" y="239" />
            </Array>
          </mxGeometry>
        </mxCell>
        <mxCell id="wJlR1qviSUh35QLnTvjL-168" value="" style="curved=1;endArrow=classic;html=1;rounded=0;entryX=0;entryY=0.5;entryDx=0;entryDy=0;dashed=1;startArrow=classic;startFill=1;" parent="WIyWlLk6GJQsqaUBKTNV-1" target="wJlR1qviSUh35QLnTvjL-128" edge="1">
          <mxGeometry width="50" height="50" relative="1" as="geometry">
            <mxPoint x="520" y="630" as="sourcePoint" />
            <mxPoint x="570" y="580" as="targetPoint" />
            <Array as="points">
              <mxPoint x="540" y="610" />
              <mxPoint x="530" y="580" />
            </Array>
          </mxGeometry>
        </mxCell>
        <mxCell id="wJlR1qviSUh35QLnTvjL-170" value="" style="curved=1;endArrow=classic;html=1;rounded=0;exitX=1;exitY=0.5;exitDx=0;exitDy=0;entryX=0;entryY=0.5;entryDx=0;entryDy=0;dashed=1;startArrow=classic;startFill=1;" parent="WIyWlLk6GJQsqaUBKTNV-1" source="wJlR1qviSUh35QLnTvjL-127" target="wJlR1qviSUh35QLnTvjL-136" edge="1">
          <mxGeometry width="50" height="50" relative="1" as="geometry">
            <mxPoint x="570" y="660" as="sourcePoint" />
            <mxPoint x="620" y="610" as="targetPoint" />
            <Array as="points">
              <mxPoint x="540" y="640" />
              <mxPoint x="530" y="677" />
            </Array>
          </mxGeometry>
        </mxCell>
        <mxCell id="wJlR1qviSUh35QLnTvjL-181" value="mountpoint_hashtable[M]" style="html=1;whiteSpace=wrap;fillColor=#cce5ff;strokeColor=#36393d;" parent="WIyWlLk6GJQsqaUBKTNV-1" vertex="1">
          <mxGeometry x="75" y="531" width="160" height="40" as="geometry" />
        </mxCell>
        <mxCell id="wJlR1qviSUh35QLnTvjL-182" style="edgeStyle=orthogonalEdgeStyle;rounded=0;orthogonalLoop=1;jettySize=auto;html=1;entryX=0;entryY=0.5;entryDx=0;entryDy=0;strokeColor=#000000;dashed=1;startArrow=classic;startFill=1;" parent="WIyWlLk6GJQsqaUBKTNV-1" target="wJlR1qviSUh35QLnTvjL-181" edge="1">
          <mxGeometry relative="1" as="geometry">
            <mxPoint x="75" y="730" as="sourcePoint" />
            <mxPoint x="45" y="571" as="targetPoint" />
            <Array as="points">
              <mxPoint x="40" y="730" />
              <mxPoint x="40" y="551" />
            </Array>
          </mxGeometry>
        </mxCell>
        <mxCell id="wJlR1qviSUh35QLnTvjL-183" style="edgeStyle=orthogonalEdgeStyle;rounded=0;orthogonalLoop=1;jettySize=auto;html=1;entryX=1;entryY=0.5;entryDx=0;entryDy=0;strokeColor=#000000;exitX=1;exitY=0.5;exitDx=0;exitDy=0;dashed=1;startArrow=classic;startFill=1;" parent="WIyWlLk6GJQsqaUBKTNV-1" edge="1">
          <mxGeometry relative="1" as="geometry">
            <mxPoint x="235" y="552" as="sourcePoint" />
            <mxPoint x="235" y="730" as="targetPoint" />
            <Array as="points">
              <mxPoint x="255" y="552" />
              <mxPoint x="255" y="730" />
            </Array>
          </mxGeometry>
        </mxCell>
        <mxCell id="wJlR1qviSUh35QLnTvjL-192" style="edgeStyle=orthogonalEdgeStyle;rounded=0;orthogonalLoop=1;jettySize=auto;html=1;entryX=0;entryY=0.5;entryDx=0;entryDy=0;fontFamily=Helvetica;fontSize=12;fontColor=default;dashed=1;startArrow=classic;startFill=1;" parent="WIyWlLk6GJQsqaUBKTNV-1" source="wJlR1qviSUh35QLnTvjL-19" target="wJlR1qviSUh35QLnTvjL-190" edge="1">
          <mxGeometry relative="1" as="geometry">
            <Array as="points">
              <mxPoint x="30" y="407" />
              <mxPoint x="30" y="923" />
            </Array>
          </mxGeometry>
        </mxCell>
        <mxCell id="wJlR1qviSUh35QLnTvjL-207" style="edgeStyle=orthogonalEdgeStyle;rounded=0;orthogonalLoop=1;jettySize=auto;html=1;entryX=0.051;entryY=1.207;entryDx=0;entryDy=0;entryPerimeter=0;strokeColor=#EA6B66;exitX=0;exitY=0.5;exitDx=0;exitDy=0;" parent="WIyWlLk6GJQsqaUBKTNV-1" source="wJlR1qviSUh35QLnTvjL-124" target="wJlR1qviSUh35QLnTvjL-127" edge="1">
          <mxGeometry relative="1" as="geometry">
            <mxPoint x="330" y="849.0899999999999" as="sourcePoint" />
            <mxPoint x="348" y="650.0899999999999" as="targetPoint" />
          </mxGeometry>
        </mxCell>
        <mxCell id="wJlR1qviSUh35QLnTvjL-227" value="&lt;font size=&quot;1&quot; color=&quot;#ff0000&quot; style=&quot;&quot;&gt;&lt;b style=&quot;font-size: 22px;&quot;&gt;ç¶æä»¶ç³»ç»&lt;/b&gt;&lt;/font&gt;" style="text;html=1;align=center;verticalAlign=middle;resizable=0;points=[];autosize=1;strokeColor=none;fillColor=none;fontSize=12;fontFamily=Helvetica;fontColor=default;" parent="WIyWlLk6GJQsqaUBKTNV-1" vertex="1">
          <mxGeometry x="760" y="10" width="130" height="40" as="geometry" />
        </mxCell>
        <mxCell id="wJlR1qviSUh35QLnTvjL-228" value="&lt;font size=&quot;1&quot; color=&quot;#ff0000&quot; style=&quot;&quot;&gt;&lt;b style=&quot;font-size: 22px;&quot;&gt;å­æä»¶ç³»ç»&lt;/b&gt;&lt;/font&gt;" style="text;html=1;align=center;verticalAlign=middle;resizable=0;points=[];autosize=1;strokeColor=none;fillColor=none;fontSize=12;fontFamily=Helvetica;fontColor=default;" parent="WIyWlLk6GJQsqaUBKTNV-1" vertex="1">
          <mxGeometry x="760" y="520" width="130" height="40" as="geometry" />
        </mxCell>
        <mxCell id="wJlR1qviSUh35QLnTvjL-229" value="&lt;font style=&quot;&quot;&gt;&lt;font style=&quot;font-size: 18px;&quot;&gt;mountæå¥hashé¾è¡¨å¤´indexè®¡ç®æ¯ç±&lt;/font&gt;&lt;br&gt;&lt;span style=&quot;font-size: 18px;&quot;&gt;ç¶mount-&amp;gt;vfsmount + æè½½ç¹dentryè®¡ç®æ¥çï¼è¯¦è§ä¸é¢å½æ°ï¼&lt;/span&gt;&lt;br&gt;&lt;div style=&quot;&quot;&gt;&lt;span style=&quot;font-size: 18px;&quot;&gt;static void __attach_mnt(struct mount *mnt, struct mount *parent)&lt;/span&gt;&lt;/div&gt;&lt;div style=&quot;&quot;&gt;&lt;span style=&quot;font-size: 18px;&quot;&gt;{&lt;/span&gt;&lt;/div&gt;&lt;div style=&quot;&quot;&gt;&lt;span style=&quot;font-size: 18px;&quot;&gt;&lt;span style=&quot;&quot;&gt;&lt;span style=&quot;white-space: pre;&quot;&gt;&amp;nbsp;&amp;nbsp;&amp;nbsp;&amp;nbsp;&lt;/span&gt;&lt;/span&gt;hlist_add_head_rcu(&amp;amp;mnt-&amp;gt;mnt_hash,&lt;/span&gt;&lt;/div&gt;&lt;div style=&quot;&quot;&gt;&lt;span style=&quot;font-size: 18px;&quot;&gt;&lt;span style=&quot;&quot;&gt;&lt;span style=&quot;white-space: pre;&quot;&gt;&amp;nbsp;&amp;nbsp;&amp;nbsp;&amp;nbsp;&lt;/span&gt;&lt;span style=&quot;white-space: pre;&quot;&gt;&amp;nbsp;&amp;nbsp;&amp;nbsp;&amp;nbsp;&lt;/span&gt;&lt;span style=&quot;white-space: pre;&quot;&gt;&amp;nbsp;&amp;nbsp;&amp;nbsp;&amp;nbsp;&lt;/span&gt;&lt;/span&gt;&amp;nbsp; &amp;nbsp;m_hash(&amp;amp;parent-&amp;gt;mnt, mnt-&amp;gt;mnt_mountpoint));&lt;/span&gt;&lt;/div&gt;&lt;div style=&quot;&quot;&gt;&lt;span style=&quot;font-size: 18px;&quot;&gt;&lt;span style=&quot;&quot;&gt;&lt;span style=&quot;white-space: pre;&quot;&gt;&amp;nbsp;&amp;nbsp;&amp;nbsp;&amp;nbsp;&lt;/span&gt;&lt;/span&gt;list_add_tail(&amp;amp;mnt-&amp;gt;mnt_child, &amp;amp;parent-&amp;gt;mnt_mounts);&lt;/span&gt;&lt;/div&gt;&lt;div style=&quot;&quot;&gt;&lt;span style=&quot;font-size: 18px;&quot;&gt;}&lt;/span&gt;&lt;/div&gt;&lt;/font&gt;" style="text;html=1;align=left;verticalAlign=middle;resizable=0;points=[];autosize=1;strokeColor=#36393d;fillColor=#eeeeee;fontSize=12;fontFamily=Helvetica;" parent="WIyWlLk6GJQsqaUBKTNV-1" vertex="1">
          <mxGeometry x="555" y="810" width="540" height="190" as="geometry" />
        </mxCell>
        <mxCell id="kUFLpfmWcjsIF87fxjAD-3" style="edgeStyle=orthogonalEdgeStyle;rounded=0;orthogonalLoop=1;jettySize=auto;html=1;entryX=0;entryY=0.5;entryDx=0;entryDy=0;fontFamily=Helvetica;fontSize=12;fontColor=default;startArrow=classic;startFill=1;dashed=1;" parent="WIyWlLk6GJQsqaUBKTNV-1" source="wJlR1qviSUh35QLnTvjL-187" target="kUFLpfmWcjsIF87fxjAD-0" edge="1">
          <mxGeometry relative="1" as="geometry" />
        </mxCell>
        <mxCell id="kUFLpfmWcjsIF87fxjAD-4" style="edgeStyle=orthogonalEdgeStyle;rounded=0;orthogonalLoop=1;jettySize=auto;html=1;entryX=0;entryY=0.5;entryDx=0;entryDy=0;fontFamily=Helvetica;fontSize=12;fontColor=default;startArrow=classic;startFill=1;dashed=1;" parent="WIyWlLk6GJQsqaUBKTNV-1" source="wJlR1qviSUh35QLnTvjL-191" target="kUFLpfmWcjsIF87fxjAD-2" edge="1">
          <mxGeometry relative="1" as="geometry">
            <mxPoint x="280" y="970" as="sourcePoint" />
            <mxPoint x="400" y="903" as="targetPoint" />
            <Array as="points">
              <mxPoint x="301" y="949" />
              <mxPoint x="330" y="950" />
              <mxPoint x="330" y="883" />
            </Array>
          </mxGeometry>
        </mxCell>
        <mxCell id="dTr-UbOxbegLzMnG7C2W-0" value="xfs" style="text;html=1;align=center;verticalAlign=middle;resizable=0;points=[];autosize=1;strokeColor=none;fillColor=none;" parent="WIyWlLk6GJQsqaUBKTNV-1" vertex="1">
          <mxGeometry x="965" y="390" width="40" height="30" as="geometry" />
        </mxCell>
        <mxCell id="dTr-UbOxbegLzMnG7C2W-1" value="cephfs" style="text;html=1;align=center;verticalAlign=middle;resizable=0;points=[];autosize=1;strokeColor=none;fillColor=none;" parent="WIyWlLk6GJQsqaUBKTNV-1" vertex="1">
          <mxGeometry x="960" y="608" width="60" height="30" as="geometry" />
        </mxCell>
        <mxCell id="Vl4s1iy8BvapvnwAddML-0" value="" style="curved=1;endArrow=classic;html=1;rounded=0;exitX=1;exitY=0.5;exitDx=0;exitDy=0;entryX=1;entryY=0.5;entryDx=0;entryDy=0;dashed=1;startArrow=classic;startFill=1;" parent="WIyWlLk6GJQsqaUBKTNV-1" source="wJlR1qviSUh35QLnTvjL-37" target="wJlR1qviSUh35QLnTvjL-59" edge="1">
          <mxGeometry width="50" height="50" relative="1" as="geometry">
            <mxPoint x="751.5" y="118" as="sourcePoint" />
            <mxPoint x="898.5" y="160" as="targetPoint" />
            <Array as="points">
              <mxPoint x="852" y="110" />
              <mxPoint x="860" y="130" />
              <mxPoint x="852" y="160" />
            </Array>
          </mxGeometry>
        </mxCell>
        <mxCell id="Vl4s1iy8BvapvnwAddML-1" value="" style="curved=1;endArrow=classic;html=1;rounded=0;exitX=1;exitY=0.5;exitDx=0;exitDy=0;entryX=1;entryY=0.5;entryDx=0;entryDy=0;dashed=1;startArrow=classic;startFill=1;" parent="WIyWlLk6GJQsqaUBKTNV-1" target="wJlR1qviSUh35QLnTvjL-136" edge="1">
          <mxGeometry width="50" height="50" relative="1" as="geometry">
            <mxPoint x="720" y="571" as="sourcePoint" />
            <mxPoint x="727" y="675" as="targetPoint" />
            <Array as="points">
              <mxPoint x="752" y="618" />
            </Array>
          </mxGeometry>
        </mxCell>
      </root>
    </mxGraphModel>
  </diagram>
  <diagram name="å¤æ¬¡mount" id="C5ZKYBUhTqc5x8LNqBNC">
    <mxGraphModel dx="2261" dy="2013" grid="1" gridSize="10" guides="1" tooltips="1" connect="1" arrows="1" fold="1" page="1" pageScale="1" pageWidth="827" pageHeight="1169" math="0" shadow="0">
      <root>
        <mxCell id="N_THCtVZEUq2pG7Y3gLQ-0" />
        <mxCell id="N_THCtVZEUq2pG7Y3gLQ-1" parent="N_THCtVZEUq2pG7Y3gLQ-0" />
        <mxCell id="oN99Mg50NwHaMWB_9zhL-53" value="" style="rounded=1;whiteSpace=wrap;html=1;strokeColor=#67AB9F;fontFamily=Helvetica;fontSize=12;fontColor=default;fillColor=none;strokeWidth=2;dashed=1;" parent="N_THCtVZEUq2pG7Y3gLQ-1" vertex="1">
          <mxGeometry x="-700" y="40" width="830" height="280" as="geometry" />
        </mxCell>
        <mxCell id="oN99Mg50NwHaMWB_9zhL-54" value="" style="rounded=1;whiteSpace=wrap;html=1;strokeColor=#67AB9F;fontFamily=Helvetica;fontSize=12;fontColor=default;fillColor=none;strokeWidth=2;dashed=1;" parent="N_THCtVZEUq2pG7Y3gLQ-1" vertex="1">
          <mxGeometry x="-700" y="350" width="830" height="300" as="geometry" />
        </mxCell>
        <mxCell id="oN99Mg50NwHaMWB_9zhL-55" value="" style="rounded=1;whiteSpace=wrap;html=1;strokeColor=#67AB9F;fontFamily=Helvetica;fontSize=12;fontColor=default;fillColor=none;strokeWidth=2;dashed=1;" parent="N_THCtVZEUq2pG7Y3gLQ-1" vertex="1">
          <mxGeometry x="-700" y="670" width="830" height="300" as="geometry" />
        </mxCell>
        <mxCell id="9UfaSuhU4-RzAykvZzNW-1" value="" style="rounded=1;whiteSpace=wrap;html=1;strokeColor=#67AB9F;fontFamily=Helvetica;fontSize=12;fontColor=default;fillColor=none;strokeWidth=2;dashed=1;" parent="N_THCtVZEUq2pG7Y3gLQ-1" vertex="1">
          <mxGeometry x="-690" y="-1020" width="870" height="480" as="geometry" />
        </mxCell>
        <mxCell id="9UfaSuhU4-RzAykvZzNW-0" value="" style="rounded=1;whiteSpace=wrap;html=1;strokeColor=#67AB9F;fontFamily=Helvetica;fontSize=12;fontColor=default;fillColor=none;strokeWidth=2;dashed=1;" parent="N_THCtVZEUq2pG7Y3gLQ-1" vertex="1">
          <mxGeometry x="-720" y="-500" width="920" height="310" as="geometry" />
        </mxCell>
        <mxCell id="N_THCtVZEUq2pG7Y3gLQ-33" style="edgeStyle=orthogonalEdgeStyle;rounded=0;orthogonalLoop=1;jettySize=auto;html=1;exitX=0.5;exitY=1;exitDx=0;exitDy=0;" parent="N_THCtVZEUq2pG7Y3gLQ-1" edge="1">
          <mxGeometry relative="1" as="geometry">
            <mxPoint x="20" y="-464" as="sourcePoint" />
            <mxPoint x="20" y="-464" as="targetPoint" />
          </mxGeometry>
        </mxCell>
        <mxCell id="1a218AyPlPdOFNmE6F3e-3" style="edgeStyle=orthogonalEdgeStyle;rounded=0;orthogonalLoop=1;jettySize=auto;html=1;fontFamily=Helvetica;fontSize=12;fontColor=default;" parent="N_THCtVZEUq2pG7Y3gLQ-1" source="g7zQlGPSfu5-OtgtRyDI-0" target="g7zQlGPSfu5-OtgtRyDI-3" edge="1">
          <mxGeometry relative="1" as="geometry" />
        </mxCell>
        <mxCell id="1a218AyPlPdOFNmE6F3e-28" style="edgeStyle=orthogonalEdgeStyle;rounded=0;orthogonalLoop=1;jettySize=auto;html=1;entryX=0;entryY=0.5;entryDx=0;entryDy=0;fontFamily=Helvetica;fontSize=12;fontColor=default;" parent="N_THCtVZEUq2pG7Y3gLQ-1" source="g7zQlGPSfu5-OtgtRyDI-0" target="1a218AyPlPdOFNmE6F3e-19" edge="1">
          <mxGeometry relative="1" as="geometry">
            <Array as="points">
              <mxPoint x="-670" y="-385" />
              <mxPoint x="-670" y="-955" />
            </Array>
          </mxGeometry>
        </mxCell>
        <mxCell id="g7zQlGPSfu5-OtgtRyDI-0" value="&lt;font style=&quot;font-size: 20px;&quot;&gt;mount&lt;/font&gt;" style="html=1;whiteSpace=wrap;rounded=1;strokeColor=#82b366;fontFamily=Helvetica;fontSize=12;fillColor=#d5e8d4;" parent="N_THCtVZEUq2pG7Y3gLQ-1" vertex="1">
          <mxGeometry x="-660" y="-410" width="110" height="50" as="geometry" />
        </mxCell>
        <mxCell id="g7zQlGPSfu5-OtgtRyDI-1" value="&lt;font style=&quot;font-size: 20px;&quot;&gt;super block&lt;br&gt;&lt;/font&gt;" style="html=1;whiteSpace=wrap;rounded=1;strokeColor=#A50040;fontFamily=Helvetica;fontSize=12;fontColor=#ffffff;fillColor=#d80073;" parent="N_THCtVZEUq2pG7Y3gLQ-1" vertex="1">
          <mxGeometry x="-320" y="-280" width="120" height="50" as="geometry" />
        </mxCell>
        <mxCell id="1a218AyPlPdOFNmE6F3e-10" style="edgeStyle=orthogonalEdgeStyle;rounded=0;orthogonalLoop=1;jettySize=auto;html=1;entryX=0.5;entryY=0;entryDx=0;entryDy=0;fontFamily=Helvetica;fontSize=12;fontColor=default;startArrow=classic;startFill=1;" parent="N_THCtVZEUq2pG7Y3gLQ-1" source="g7zQlGPSfu5-OtgtRyDI-2" target="g7zQlGPSfu5-OtgtRyDI-1" edge="1">
          <mxGeometry relative="1" as="geometry" />
        </mxCell>
        <mxCell id="g7zQlGPSfu5-OtgtRyDI-2" value="&lt;font style=&quot;font-size: 20px;&quot;&gt;æ ¹dentry&lt;br&gt;&lt;/font&gt;" style="html=1;whiteSpace=wrap;rounded=1;strokeColor=#b85450;fontFamily=Helvetica;fontSize=12;fillColor=#f8cecc;" parent="N_THCtVZEUq2pG7Y3gLQ-1" vertex="1">
          <mxGeometry x="-320" y="-410" width="120" height="50" as="geometry" />
        </mxCell>
        <mxCell id="1a218AyPlPdOFNmE6F3e-2" style="edgeStyle=orthogonalEdgeStyle;rounded=0;orthogonalLoop=1;jettySize=auto;html=1;entryX=0;entryY=0.5;entryDx=0;entryDy=0;fontFamily=Helvetica;fontSize=12;fontColor=default;" parent="N_THCtVZEUq2pG7Y3gLQ-1" source="g7zQlGPSfu5-OtgtRyDI-3" target="g7zQlGPSfu5-OtgtRyDI-2" edge="1">
          <mxGeometry relative="1" as="geometry" />
        </mxCell>
        <mxCell id="g7zQlGPSfu5-OtgtRyDI-3" value="&lt;font style=&quot;font-size: 20px;&quot;&gt;vfsmount&lt;/font&gt;" style="html=1;whiteSpace=wrap;rounded=1;strokeColor=#d6b656;fontFamily=Helvetica;fontSize=12;fillColor=#fff2cc;" parent="N_THCtVZEUq2pG7Y3gLQ-1" vertex="1">
          <mxGeometry x="-490" y="-410" width="110" height="50" as="geometry" />
        </mxCell>
        <mxCell id="1a218AyPlPdOFNmE6F3e-8" style="edgeStyle=orthogonalEdgeStyle;rounded=0;orthogonalLoop=1;jettySize=auto;html=1;entryX=1;entryY=0.5;entryDx=0;entryDy=0;fontFamily=Helvetica;fontSize=12;fontColor=default;" parent="N_THCtVZEUq2pG7Y3gLQ-1" source="1a218AyPlPdOFNmE6F3e-0" target="1a218AyPlPdOFNmE6F3e-1" edge="1">
          <mxGeometry relative="1" as="geometry" />
        </mxCell>
        <mxCell id="1a218AyPlPdOFNmE6F3e-30" style="edgeStyle=orthogonalEdgeStyle;rounded=0;orthogonalLoop=1;jettySize=auto;html=1;entryX=1;entryY=0.5;entryDx=0;entryDy=0;fontFamily=Helvetica;fontSize=12;fontColor=default;" parent="N_THCtVZEUq2pG7Y3gLQ-1" source="1a218AyPlPdOFNmE6F3e-0" target="1a218AyPlPdOFNmE6F3e-19" edge="1">
          <mxGeometry relative="1" as="geometry">
            <Array as="points">
              <mxPoint x="150" y="-385" />
              <mxPoint x="150" y="-955" />
            </Array>
          </mxGeometry>
        </mxCell>
        <mxCell id="1a218AyPlPdOFNmE6F3e-0" value="&lt;font style=&quot;font-size: 20px;&quot;&gt;mount&lt;/font&gt;" style="html=1;whiteSpace=wrap;rounded=1;strokeColor=#82b366;fontFamily=Helvetica;fontSize=12;fillColor=#d5e8d4;" parent="N_THCtVZEUq2pG7Y3gLQ-1" vertex="1">
          <mxGeometry x="30" y="-410" width="110" height="50" as="geometry" />
        </mxCell>
        <mxCell id="1a218AyPlPdOFNmE6F3e-6" style="edgeStyle=orthogonalEdgeStyle;rounded=0;orthogonalLoop=1;jettySize=auto;html=1;entryX=1;entryY=0.5;entryDx=0;entryDy=0;fontFamily=Helvetica;fontSize=12;fontColor=default;" parent="N_THCtVZEUq2pG7Y3gLQ-1" source="1a218AyPlPdOFNmE6F3e-1" target="g7zQlGPSfu5-OtgtRyDI-2" edge="1">
          <mxGeometry relative="1" as="geometry" />
        </mxCell>
        <mxCell id="1a218AyPlPdOFNmE6F3e-1" value="&lt;font style=&quot;font-size: 20px;&quot;&gt;vfsmount&lt;/font&gt;" style="html=1;whiteSpace=wrap;rounded=1;strokeColor=#d6b656;fontFamily=Helvetica;fontSize=12;fillColor=#fff2cc;" parent="N_THCtVZEUq2pG7Y3gLQ-1" vertex="1">
          <mxGeometry x="-140" y="-410" width="110" height="50" as="geometry" />
        </mxCell>
        <mxCell id="1a218AyPlPdOFNmE6F3e-4" value="mnt" style="text;html=1;align=center;verticalAlign=middle;resizable=0;points=[];autosize=1;strokeColor=none;fillColor=none;fontSize=12;fontFamily=Helvetica;fontColor=default;" parent="N_THCtVZEUq2pG7Y3gLQ-1" vertex="1">
          <mxGeometry x="-540" y="-412" width="40" height="30" as="geometry" />
        </mxCell>
        <mxCell id="1a218AyPlPdOFNmE6F3e-5" value="mnt_root" style="text;html=1;align=center;verticalAlign=middle;resizable=0;points=[];autosize=1;strokeColor=none;fillColor=none;fontSize=12;fontFamily=Helvetica;fontColor=default;" parent="N_THCtVZEUq2pG7Y3gLQ-1" vertex="1">
          <mxGeometry x="-390" y="-412" width="70" height="30" as="geometry" />
        </mxCell>
        <mxCell id="1a218AyPlPdOFNmE6F3e-7" value="mnt_root" style="text;html=1;align=center;verticalAlign=middle;resizable=0;points=[];autosize=1;strokeColor=none;fillColor=none;fontSize=12;fontFamily=Helvetica;fontColor=default;" parent="N_THCtVZEUq2pG7Y3gLQ-1" vertex="1">
          <mxGeometry x="-206" y="-412" width="70" height="30" as="geometry" />
        </mxCell>
        <mxCell id="1a218AyPlPdOFNmE6F3e-9" value="mnt" style="text;html=1;align=center;verticalAlign=middle;resizable=0;points=[];autosize=1;strokeColor=none;fillColor=none;fontSize=12;fontFamily=Helvetica;fontColor=default;" parent="N_THCtVZEUq2pG7Y3gLQ-1" vertex="1">
          <mxGeometry x="-20" y="-415" width="40" height="30" as="geometry" />
        </mxCell>
        <mxCell id="1a218AyPlPdOFNmE6F3e-11" value="d_sb" style="text;html=1;align=center;verticalAlign=middle;resizable=0;points=[];autosize=1;strokeColor=none;fillColor=none;fontSize=12;fontFamily=Helvetica;fontColor=default;" parent="N_THCtVZEUq2pG7Y3gLQ-1" vertex="1">
          <mxGeometry x="-260" y="-352" width="50" height="30" as="geometry" />
        </mxCell>
        <mxCell id="1a218AyPlPdOFNmE6F3e-12" value="s_root" style="text;html=1;align=center;verticalAlign=middle;resizable=0;points=[];autosize=1;strokeColor=none;fillColor=none;fontSize=12;fontFamily=Helvetica;fontColor=default;" parent="N_THCtVZEUq2pG7Y3gLQ-1" vertex="1">
          <mxGeometry x="-260" y="-312" width="60" height="30" as="geometry" />
        </mxCell>
        <mxCell id="1a218AyPlPdOFNmE6F3e-25" style="edgeStyle=orthogonalEdgeStyle;rounded=0;orthogonalLoop=1;jettySize=auto;html=1;entryX=0.5;entryY=0;entryDx=0;entryDy=0;fontFamily=Helvetica;fontSize=12;fontColor=default;startArrow=classic;startFill=1;" parent="N_THCtVZEUq2pG7Y3gLQ-1" source="1a218AyPlPdOFNmE6F3e-13" target="1a218AyPlPdOFNmE6F3e-14" edge="1">
          <mxGeometry relative="1" as="geometry" />
        </mxCell>
        <mxCell id="1a218AyPlPdOFNmE6F3e-38" style="edgeStyle=orthogonalEdgeStyle;rounded=0;orthogonalLoop=1;jettySize=auto;html=1;entryX=1.117;entryY=1.067;entryDx=0;entryDy=0;entryPerimeter=0;fontFamily=Helvetica;fontSize=12;fontColor=default;dashed=1;startArrow=classic;startFill=1;" parent="N_THCtVZEUq2pG7Y3gLQ-1" source="1a218AyPlPdOFNmE6F3e-13" target="1a218AyPlPdOFNmE6F3e-17" edge="1">
          <mxGeometry relative="1" as="geometry">
            <Array as="points">
              <mxPoint x="-183" y="-760" />
            </Array>
          </mxGeometry>
        </mxCell>
        <mxCell id="1a218AyPlPdOFNmE6F3e-39" style="edgeStyle=orthogonalEdgeStyle;rounded=0;orthogonalLoop=1;jettySize=auto;html=1;fontFamily=Helvetica;fontSize=12;fontColor=default;dashed=1;startArrow=classic;startFill=1;" parent="N_THCtVZEUq2pG7Y3gLQ-1" source="1a218AyPlPdOFNmE6F3e-13" edge="1">
          <mxGeometry relative="1" as="geometry">
            <mxPoint x="-20" y="-660" as="targetPoint" />
          </mxGeometry>
        </mxCell>
        <mxCell id="1a218AyPlPdOFNmE6F3e-13" value="&lt;font style=&quot;font-size: 20px;&quot;&gt;æ ¹dentry&lt;br&gt;&lt;/font&gt;" style="html=1;whiteSpace=wrap;rounded=1;strokeColor=#b85450;fontFamily=Helvetica;fontSize=12;fillColor=#f8cecc;" parent="N_THCtVZEUq2pG7Y3gLQ-1" vertex="1">
          <mxGeometry x="-420" y="-800" width="120" height="50" as="geometry" />
        </mxCell>
        <mxCell id="1a218AyPlPdOFNmE6F3e-14" value="&lt;font style=&quot;font-size: 20px;&quot;&gt;super block&lt;br&gt;&lt;/font&gt;" style="html=1;whiteSpace=wrap;rounded=1;strokeColor=#A50040;fontFamily=Helvetica;fontSize=12;fontColor=#ffffff;fillColor=#d80073;" parent="N_THCtVZEUq2pG7Y3gLQ-1" vertex="1">
          <mxGeometry x="-420" y="-690" width="120" height="50" as="geometry" />
        </mxCell>
        <mxCell id="1a218AyPlPdOFNmE6F3e-42" value="" style="edgeStyle=orthogonalEdgeStyle;rounded=0;orthogonalLoop=1;jettySize=auto;html=1;fontFamily=Helvetica;fontSize=12;fontColor=default;entryX=0;entryY=0.5;entryDx=0;entryDy=0;dashed=1;startArrow=classic;startFill=1;" parent="N_THCtVZEUq2pG7Y3gLQ-1" source="1a218AyPlPdOFNmE6F3e-15" target="1a218AyPlPdOFNmE6F3e-16" edge="1">
          <mxGeometry relative="1" as="geometry" />
        </mxCell>
        <mxCell id="1a218AyPlPdOFNmE6F3e-15" value="&lt;span style=&quot;font-size: 20px;&quot;&gt;dentry&lt;/span&gt;" style="html=1;whiteSpace=wrap;rounded=1;strokeColor=#d79b00;fontFamily=Helvetica;fontSize=12;fillColor=#ffe6cc;" parent="N_THCtVZEUq2pG7Y3gLQ-1" vertex="1">
          <mxGeometry x="-260" y="-658" width="130" height="40" as="geometry" />
        </mxCell>
        <mxCell id="1a218AyPlPdOFNmE6F3e-16" value="&lt;span style=&quot;font-size: 20px;&quot;&gt;dentry&lt;/span&gt;" style="html=1;whiteSpace=wrap;rounded=1;strokeColor=#d79b00;fontFamily=Helvetica;fontSize=12;fillColor=#ffe6cc;" parent="N_THCtVZEUq2pG7Y3gLQ-1" vertex="1">
          <mxGeometry x="-90" y="-658" width="130" height="40" as="geometry" />
        </mxCell>
        <mxCell id="1a218AyPlPdOFNmE6F3e-17" value="/mnt/a" style="text;html=1;align=center;verticalAlign=middle;resizable=0;points=[];autosize=1;strokeColor=none;fillColor=none;fontSize=12;fontFamily=Helvetica;fontColor=default;" parent="N_THCtVZEUq2pG7Y3gLQ-1" vertex="1">
          <mxGeometry x="-250" y="-690" width="60" height="30" as="geometry" />
        </mxCell>
        <mxCell id="1a218AyPlPdOFNmE6F3e-18" value="/mnt/b" style="text;html=1;align=center;verticalAlign=middle;resizable=0;points=[];autosize=1;strokeColor=none;fillColor=none;fontSize=12;fontFamily=Helvetica;fontColor=default;" parent="N_THCtVZEUq2pG7Y3gLQ-1" vertex="1">
          <mxGeometry x="-85" y="-690" width="60" height="30" as="geometry" />
        </mxCell>
        <mxCell id="1a218AyPlPdOFNmE6F3e-22" value="" style="edgeStyle=orthogonalEdgeStyle;rounded=0;orthogonalLoop=1;jettySize=auto;html=1;fontFamily=Helvetica;fontSize=12;fontColor=default;" parent="N_THCtVZEUq2pG7Y3gLQ-1" source="1a218AyPlPdOFNmE6F3e-19" target="1a218AyPlPdOFNmE6F3e-20" edge="1">
          <mxGeometry relative="1" as="geometry" />
        </mxCell>
        <mxCell id="1a218AyPlPdOFNmE6F3e-32" style="edgeStyle=orthogonalEdgeStyle;rounded=0;orthogonalLoop=1;jettySize=auto;html=1;fontFamily=Helvetica;fontSize=12;fontColor=default;entryX=0.75;entryY=0;entryDx=0;entryDy=0;startArrow=classic;startFill=1;dashed=1;" parent="N_THCtVZEUq2pG7Y3gLQ-1" source="1a218AyPlPdOFNmE6F3e-19" target="1a218AyPlPdOFNmE6F3e-0" edge="1">
          <mxGeometry relative="1" as="geometry">
            <mxPoint x="85" y="-440" as="targetPoint" />
            <Array as="points">
              <mxPoint x="113" y="-940" />
              <mxPoint x="113" y="-440" />
            </Array>
          </mxGeometry>
        </mxCell>
        <mxCell id="1a218AyPlPdOFNmE6F3e-35" style="edgeStyle=orthogonalEdgeStyle;rounded=0;orthogonalLoop=1;jettySize=auto;html=1;entryX=0.173;entryY=-0.02;entryDx=0;entryDy=0;entryPerimeter=0;fontFamily=Helvetica;fontSize=12;fontColor=default;dashed=1;startArrow=classic;startFill=1;" parent="N_THCtVZEUq2pG7Y3gLQ-1" source="1a218AyPlPdOFNmE6F3e-19" target="g7zQlGPSfu5-OtgtRyDI-0" edge="1">
          <mxGeometry relative="1" as="geometry">
            <Array as="points">
              <mxPoint x="-641" y="-940" />
            </Array>
          </mxGeometry>
        </mxCell>
        <mxCell id="1a218AyPlPdOFNmE6F3e-19" value="&lt;font style=&quot;font-size: 20px;&quot;&gt;mount&lt;/font&gt;" style="html=1;whiteSpace=wrap;rounded=1;strokeColor=#82b366;fontFamily=Helvetica;fontSize=12;fillColor=#d5e8d4;" parent="N_THCtVZEUq2pG7Y3gLQ-1" vertex="1">
          <mxGeometry x="-415" y="-980" width="110" height="50" as="geometry" />
        </mxCell>
        <mxCell id="1a218AyPlPdOFNmE6F3e-21" style="edgeStyle=orthogonalEdgeStyle;rounded=0;orthogonalLoop=1;jettySize=auto;html=1;entryX=0.5;entryY=0;entryDx=0;entryDy=0;fontFamily=Helvetica;fontSize=12;fontColor=default;" parent="N_THCtVZEUq2pG7Y3gLQ-1" source="1a218AyPlPdOFNmE6F3e-20" target="1a218AyPlPdOFNmE6F3e-13" edge="1">
          <mxGeometry relative="1" as="geometry" />
        </mxCell>
        <mxCell id="w8WNKr-R_SODExmah_0f-25" style="edgeStyle=orthogonalEdgeStyle;rounded=0;orthogonalLoop=1;jettySize=auto;html=1;entryX=0;entryY=0.25;entryDx=0;entryDy=0;fontFamily=Helvetica;fontSize=12;fontColor=default;" parent="N_THCtVZEUq2pG7Y3gLQ-1" source="1a218AyPlPdOFNmE6F3e-20" target="1a218AyPlPdOFNmE6F3e-14" edge="1">
          <mxGeometry relative="1" as="geometry">
            <Array as="points">
              <mxPoint x="-440" y="-865" />
              <mxPoint x="-440" y="-677" />
              <mxPoint x="-420" y="-677" />
            </Array>
          </mxGeometry>
        </mxCell>
        <mxCell id="w8WNKr-R_SODExmah_0f-26" value="mnt_sb" style="edgeLabel;html=1;align=center;verticalAlign=middle;resizable=0;points=[];fontSize=12;fontFamily=Helvetica;fontColor=default;" parent="w8WNKr-R_SODExmah_0f-25" vertex="1" connectable="0">
          <mxGeometry x="-0.4932" y="-1" relative="1" as="geometry">
            <mxPoint as="offset" />
          </mxGeometry>
        </mxCell>
        <mxCell id="1a218AyPlPdOFNmE6F3e-20" value="&lt;font style=&quot;font-size: 20px;&quot;&gt;vfsmount&lt;/font&gt;" style="html=1;whiteSpace=wrap;rounded=1;strokeColor=#d6b656;fontFamily=Helvetica;fontSize=12;fillColor=#fff2cc;" parent="N_THCtVZEUq2pG7Y3gLQ-1" vertex="1">
          <mxGeometry x="-415" y="-890" width="110" height="50" as="geometry" />
        </mxCell>
        <mxCell id="1a218AyPlPdOFNmE6F3e-23" value="mnt" style="text;html=1;align=center;verticalAlign=middle;resizable=0;points=[];autosize=1;strokeColor=none;fillColor=none;fontSize=12;fontFamily=Helvetica;fontColor=default;" parent="N_THCtVZEUq2pG7Y3gLQ-1" vertex="1">
          <mxGeometry x="-365" y="-930" width="40" height="30" as="geometry" />
        </mxCell>
        <mxCell id="1a218AyPlPdOFNmE6F3e-24" value="mnt_root" style="text;html=1;align=center;verticalAlign=middle;resizable=0;points=[];autosize=1;strokeColor=none;fillColor=none;fontSize=12;fontFamily=Helvetica;fontColor=default;" parent="N_THCtVZEUq2pG7Y3gLQ-1" vertex="1">
          <mxGeometry x="-365" y="-840" width="70" height="30" as="geometry" />
        </mxCell>
        <mxCell id="1a218AyPlPdOFNmE6F3e-26" value="d_sb" style="text;html=1;align=center;verticalAlign=middle;resizable=0;points=[];autosize=1;strokeColor=none;fillColor=none;fontSize=12;fontFamily=Helvetica;fontColor=default;" parent="N_THCtVZEUq2pG7Y3gLQ-1" vertex="1">
          <mxGeometry x="-355" y="-752" width="50" height="30" as="geometry" />
        </mxCell>
        <mxCell id="1a218AyPlPdOFNmE6F3e-27" value="s_root" style="text;html=1;align=center;verticalAlign=middle;resizable=0;points=[];autosize=1;strokeColor=none;fillColor=none;fontSize=12;fontFamily=Helvetica;fontColor=default;" parent="N_THCtVZEUq2pG7Y3gLQ-1" vertex="1">
          <mxGeometry x="-355" y="-722" width="60" height="30" as="geometry" />
        </mxCell>
        <mxCell id="1a218AyPlPdOFNmE6F3e-29" value="mnt_parent" style="text;html=1;align=center;verticalAlign=middle;resizable=0;points=[];autosize=1;strokeColor=none;fillColor=none;fontSize=12;fontFamily=Helvetica;fontColor=default;" parent="N_THCtVZEUq2pG7Y3gLQ-1" vertex="1">
          <mxGeometry x="-530" y="-992" width="80" height="30" as="geometry" />
        </mxCell>
        <mxCell id="1a218AyPlPdOFNmE6F3e-31" value="mnt_parent" style="text;html=1;align=center;verticalAlign=middle;resizable=0;points=[];autosize=1;strokeColor=none;fillColor=none;fontSize=12;fontFamily=Helvetica;fontColor=default;" parent="N_THCtVZEUq2pG7Y3gLQ-1" vertex="1">
          <mxGeometry x="-230" y="-992" width="80" height="30" as="geometry" />
        </mxCell>
        <mxCell id="1a218AyPlPdOFNmE6F3e-33" value="mnt_mounts" style="text;html=1;align=center;verticalAlign=middle;resizable=0;points=[];autosize=1;strokeColor=none;fillColor=none;fontSize=12;fontFamily=Helvetica;fontColor=default;" parent="N_THCtVZEUq2pG7Y3gLQ-1" vertex="1">
          <mxGeometry x="-235" y="-940" width="90" height="30" as="geometry" />
        </mxCell>
        <mxCell id="1a218AyPlPdOFNmE6F3e-34" value="mnt_child" style="text;html=1;align=center;verticalAlign=middle;resizable=0;points=[];autosize=1;strokeColor=none;fillColor=none;fontSize=12;fontFamily=Helvetica;fontColor=default;" parent="N_THCtVZEUq2pG7Y3gLQ-1" vertex="1">
          <mxGeometry x="60" y="-470" width="70" height="30" as="geometry" />
        </mxCell>
        <mxCell id="1a218AyPlPdOFNmE6F3e-36" value="mnt_mounts" style="text;html=1;align=center;verticalAlign=middle;resizable=0;points=[];autosize=1;strokeColor=none;fillColor=none;fontSize=12;fontFamily=Helvetica;fontColor=default;" parent="N_THCtVZEUq2pG7Y3gLQ-1" vertex="1">
          <mxGeometry x="-580" y="-940" width="90" height="30" as="geometry" />
        </mxCell>
        <mxCell id="1a218AyPlPdOFNmE6F3e-37" value="mnt_child" style="text;html=1;align=center;verticalAlign=middle;resizable=0;points=[];autosize=1;strokeColor=none;fillColor=none;fontSize=12;fontFamily=Helvetica;fontColor=default;" parent="N_THCtVZEUq2pG7Y3gLQ-1" vertex="1">
          <mxGeometry x="-640" y="-462" width="70" height="30" as="geometry" />
        </mxCell>
        <mxCell id="1a218AyPlPdOFNmE6F3e-43" value="" style="curved=1;endArrow=classic;html=1;rounded=0;fontFamily=Helvetica;fontSize=12;fontColor=default;exitX=0.5;exitY=0;exitDx=0;exitDy=0;entryX=0.5;entryY=1;entryDx=0;entryDy=0;strokeColor=#000000;strokeWidth=2;" parent="N_THCtVZEUq2pG7Y3gLQ-1" source="g7zQlGPSfu5-OtgtRyDI-0" target="1a218AyPlPdOFNmE6F3e-15" edge="1">
          <mxGeometry width="50" height="50" relative="1" as="geometry">
            <mxPoint x="-380" y="-480" as="sourcePoint" />
            <mxPoint x="-330" y="-530" as="targetPoint" />
            <Array as="points">
              <mxPoint x="-470" y="-470" />
              <mxPoint x="-380" y="-530" />
              <mxPoint x="-260" y="-540" />
            </Array>
          </mxGeometry>
        </mxCell>
        <mxCell id="1a218AyPlPdOFNmE6F3e-44" value="mnt_mountpoint" style="text;html=1;align=center;verticalAlign=middle;resizable=0;points=[];autosize=1;strokeColor=none;fillColor=none;fontSize=12;fontFamily=Helvetica;fontColor=default;" parent="N_THCtVZEUq2pG7Y3gLQ-1" vertex="1">
          <mxGeometry x="-545" y="-462" width="110" height="30" as="geometry" />
        </mxCell>
        <mxCell id="1a218AyPlPdOFNmE6F3e-45" value="" style="curved=1;endArrow=classic;html=1;rounded=0;fontFamily=Helvetica;fontSize=12;fontColor=default;entryX=0.5;entryY=1;entryDx=0;entryDy=0;exitX=0.5;exitY=0;exitDx=0;exitDy=0;strokeColor=#000000;strokeWidth=2;" parent="N_THCtVZEUq2pG7Y3gLQ-1" source="1a218AyPlPdOFNmE6F3e-0" target="1a218AyPlPdOFNmE6F3e-16" edge="1">
          <mxGeometry width="50" height="50" relative="1" as="geometry">
            <mxPoint x="-120" y="-470" as="sourcePoint" />
            <mxPoint x="-70" y="-520" as="targetPoint" />
            <Array as="points">
              <mxPoint x="-30" y="-470" />
              <mxPoint x="-20" y="-530" />
            </Array>
          </mxGeometry>
        </mxCell>
        <mxCell id="1a218AyPlPdOFNmE6F3e-47" value="mnt_mountpoint" style="text;html=1;align=center;verticalAlign=middle;resizable=0;points=[];autosize=1;strokeColor=none;fillColor=none;fontSize=12;fontFamily=Helvetica;fontColor=default;" parent="N_THCtVZEUq2pG7Y3gLQ-1" vertex="1">
          <mxGeometry x="-80" y="-462" width="110" height="30" as="geometry" />
        </mxCell>
        <mxCell id="KGcG40-7GM-LznL3YwqF-0" value="&lt;font size=&quot;1&quot; color=&quot;#ff0000&quot; style=&quot;&quot;&gt;&lt;b style=&quot;font-size: 22px;&quot;&gt;ç¶æä»¶ç³»ç»&lt;/b&gt;&lt;/font&gt;" style="text;html=1;align=center;verticalAlign=middle;resizable=0;points=[];autosize=1;strokeColor=none;fillColor=none;fontSize=12;fontFamily=Helvetica;fontColor=default;" parent="N_THCtVZEUq2pG7Y3gLQ-1" vertex="1">
          <mxGeometry x="-20" y="-1010" width="130" height="40" as="geometry" />
        </mxCell>
        <mxCell id="XRHkpRwe-9y20gbqU5zh-0" value="&lt;font size=&quot;1&quot; color=&quot;#ff0000&quot; style=&quot;&quot;&gt;&lt;b style=&quot;font-size: 22px;&quot;&gt;å­æä»¶ç³»ç»&lt;/b&gt;&lt;/font&gt;" style="text;html=1;align=center;verticalAlign=middle;resizable=0;points=[];autosize=1;strokeColor=none;fillColor=none;fontSize=12;fontFamily=Helvetica;fontColor=default;" parent="N_THCtVZEUq2pG7Y3gLQ-1" vertex="1">
          <mxGeometry x="10" y="-230" width="130" height="40" as="geometry" />
        </mxCell>
        <mxCell id="XRHkpRwe-9y20gbqU5zh-2" value="" style="curved=1;endArrow=classic;html=1;rounded=0;fontFamily=Helvetica;fontSize=12;fontColor=default;entryX=0;entryY=0.5;entryDx=0;entryDy=0;exitX=0.5;exitY=1;exitDx=0;exitDy=0;startArrow=classic;startFill=1;dashed=1;" parent="N_THCtVZEUq2pG7Y3gLQ-1" source="g7zQlGPSfu5-OtgtRyDI-0" target="g7zQlGPSfu5-OtgtRyDI-1" edge="1">
          <mxGeometry width="50" height="50" relative="1" as="geometry">
            <mxPoint x="-550" y="-240" as="sourcePoint" />
            <mxPoint x="-500" y="-290" as="targetPoint" />
            <Array as="points">
              <mxPoint x="-560" y="-220" />
            </Array>
          </mxGeometry>
        </mxCell>
        <mxCell id="w8WNKr-R_SODExmah_0f-0" value="&lt;font color=&quot;#ff0000&quot;&gt;d_flags |= DCACHE_MOUNTED&lt;/font&gt;" style="text;html=1;align=left;verticalAlign=middle;resizable=0;points=[];autosize=1;strokeColor=none;fillColor=none;" parent="N_THCtVZEUq2pG7Y3gLQ-1" vertex="1">
          <mxGeometry x="-280" y="-610" width="200" height="30" as="geometry" />
        </mxCell>
        <mxCell id="w8WNKr-R_SODExmah_0f-1" value="&lt;font color=&quot;#ff0000&quot;&gt;d_flags |= DCACHE_MOUNTED&lt;/font&gt;" style="text;html=1;align=left;verticalAlign=middle;resizable=0;points=[];autosize=1;strokeColor=none;fillColor=none;" parent="N_THCtVZEUq2pG7Y3gLQ-1" vertex="1">
          <mxGeometry x="-80" y="-610" width="200" height="30" as="geometry" />
        </mxCell>
        <mxCell id="w8WNKr-R_SODExmah_0f-2" value="" style="curved=1;endArrow=classic;html=1;rounded=0;fontFamily=Helvetica;fontSize=12;fontColor=default;exitX=0.5;exitY=1;exitDx=0;exitDy=0;entryX=0;entryY=0.25;entryDx=0;entryDy=0;" parent="N_THCtVZEUq2pG7Y3gLQ-1" source="g7zQlGPSfu5-OtgtRyDI-3" target="g7zQlGPSfu5-OtgtRyDI-1" edge="1">
          <mxGeometry width="50" height="50" relative="1" as="geometry">
            <mxPoint x="-440" y="-270" as="sourcePoint" />
            <mxPoint x="-390" y="-320" as="targetPoint" />
            <Array as="points">
              <mxPoint x="-430" y="-280" />
              <mxPoint x="-360" y="-300" />
            </Array>
          </mxGeometry>
        </mxCell>
        <mxCell id="w8WNKr-R_SODExmah_0f-3" value="mnt_sb" style="edgeLabel;html=1;align=center;verticalAlign=middle;resizable=0;points=[];fontSize=12;fontFamily=Helvetica;fontColor=default;" parent="w8WNKr-R_SODExmah_0f-2" vertex="1" connectable="0">
          <mxGeometry x="-0.4943" y="10" relative="1" as="geometry">
            <mxPoint as="offset" />
          </mxGeometry>
        </mxCell>
        <mxCell id="w8WNKr-R_SODExmah_0f-5" value="s_mounts" style="text;html=1;align=center;verticalAlign=middle;resizable=0;points=[];autosize=1;strokeColor=none;fillColor=none;fontSize=12;fontFamily=Helvetica;fontColor=default;" parent="N_THCtVZEUq2pG7Y3gLQ-1" vertex="1">
          <mxGeometry x="-420" y="-240" width="80" height="30" as="geometry" />
        </mxCell>
        <mxCell id="w8WNKr-R_SODExmah_0f-6" value="mnt_instane" style="text;html=1;align=center;verticalAlign=middle;resizable=0;points=[];autosize=1;strokeColor=none;fillColor=none;fontSize=12;fontFamily=Helvetica;fontColor=default;" parent="N_THCtVZEUq2pG7Y3gLQ-1" vertex="1">
          <mxGeometry x="-660" y="-330" width="90" height="30" as="geometry" />
        </mxCell>
        <mxCell id="w8WNKr-R_SODExmah_0f-7" value="" style="curved=1;endArrow=classic;html=1;rounded=0;fontFamily=Helvetica;fontSize=12;fontColor=default;entryX=0.5;entryY=1;entryDx=0;entryDy=0;exitX=1;exitY=0.75;exitDx=0;exitDy=0;startArrow=classic;startFill=1;dashed=1;" parent="N_THCtVZEUq2pG7Y3gLQ-1" source="g7zQlGPSfu5-OtgtRyDI-1" target="1a218AyPlPdOFNmE6F3e-0" edge="1">
          <mxGeometry width="50" height="50" relative="1" as="geometry">
            <mxPoint x="-175" y="-360" as="sourcePoint" />
            <mxPoint x="110" y="-255" as="targetPoint" />
            <Array as="points">
              <mxPoint x="-130" y="-230" />
              <mxPoint x="60" y="-300" />
            </Array>
          </mxGeometry>
        </mxCell>
        <mxCell id="w8WNKr-R_SODExmah_0f-8" value="mnt_instane" style="text;html=1;align=center;verticalAlign=middle;resizable=0;points=[];autosize=1;strokeColor=none;fillColor=none;fontSize=12;fontFamily=Helvetica;fontColor=default;" parent="N_THCtVZEUq2pG7Y3gLQ-1" vertex="1">
          <mxGeometry x="60" y="-342" width="90" height="30" as="geometry" />
        </mxCell>
        <mxCell id="w8WNKr-R_SODExmah_0f-9" value="s_mounts" style="text;html=1;align=center;verticalAlign=middle;resizable=0;points=[];autosize=1;strokeColor=none;fillColor=none;fontSize=12;fontFamily=Helvetica;fontColor=default;" parent="N_THCtVZEUq2pG7Y3gLQ-1" vertex="1">
          <mxGeometry x="-150" y="-240" width="80" height="30" as="geometry" />
        </mxCell>
        <mxCell id="w8WNKr-R_SODExmah_0f-11" value="" style="curved=1;endArrow=classic;html=1;rounded=0;fontFamily=Helvetica;fontSize=12;fontColor=default;exitX=0.5;exitY=1;exitDx=0;exitDy=0;entryX=1;entryY=0.5;entryDx=0;entryDy=0;" parent="N_THCtVZEUq2pG7Y3gLQ-1" source="1a218AyPlPdOFNmE6F3e-1" target="g7zQlGPSfu5-OtgtRyDI-1" edge="1">
          <mxGeometry width="50" height="50" relative="1" as="geometry">
            <mxPoint x="-170" y="-372.5" as="sourcePoint" />
            <mxPoint x="-55" y="-279.5" as="targetPoint" />
            <Array as="points">
              <mxPoint x="-80" y="-300" />
              <mxPoint x="-130" y="-270" />
            </Array>
          </mxGeometry>
        </mxCell>
        <mxCell id="w8WNKr-R_SODExmah_0f-12" value="mnt_sb" style="edgeLabel;html=1;align=center;verticalAlign=middle;resizable=0;points=[];fontSize=12;fontFamily=Helvetica;fontColor=default;" parent="w8WNKr-R_SODExmah_0f-11" vertex="1" connectable="0">
          <mxGeometry x="-0.4943" y="10" relative="1" as="geometry">
            <mxPoint x="-19" y="13" as="offset" />
          </mxGeometry>
        </mxCell>
        <mxCell id="w8WNKr-R_SODExmah_0f-13" value="" style="endArrow=classic;html=1;rounded=0;fontFamily=Helvetica;fontSize=12;fontColor=default;strokeWidth=2;strokeColor=#B5739D;" parent="N_THCtVZEUq2pG7Y3gLQ-1" edge="1">
          <mxGeometry width="50" height="50" relative="1" as="geometry">
            <mxPoint x="-660" y="-370" as="sourcePoint" />
            <mxPoint x="-710" y="-370" as="targetPoint" />
          </mxGeometry>
        </mxCell>
        <mxCell id="w8WNKr-R_SODExmah_0f-15" value="" style="endArrow=classic;html=1;rounded=0;fontFamily=Helvetica;fontSize=12;fontColor=default;strokeWidth=2;strokeColor=#B5739D;" parent="N_THCtVZEUq2pG7Y3gLQ-1" edge="1">
          <mxGeometry width="50" height="50" relative="1" as="geometry">
            <mxPoint x="140" y="-370" as="sourcePoint" />
            <mxPoint x="180" y="-370" as="targetPoint" />
          </mxGeometry>
        </mxCell>
        <mxCell id="w8WNKr-R_SODExmah_0f-16" value="" style="endArrow=classic;html=1;rounded=0;fontFamily=Helvetica;fontSize=12;fontColor=default;strokeWidth=2;strokeColor=#B5739D;" parent="N_THCtVZEUq2pG7Y3gLQ-1" edge="1">
          <mxGeometry width="50" height="50" relative="1" as="geometry">
            <mxPoint x="-380" y="-980" as="sourcePoint" />
            <mxPoint x="-380" y="-1010" as="targetPoint" />
          </mxGeometry>
        </mxCell>
        <mxCell id="w8WNKr-R_SODExmah_0f-17" value="" style="rounded=1;whiteSpace=wrap;html=1;strokeColor=#67AB9F;fontFamily=Helvetica;fontSize=12;fontColor=default;fillColor=none;strokeWidth=2;dashed=1;" parent="N_THCtVZEUq2pG7Y3gLQ-1" vertex="1">
          <mxGeometry x="-720" y="-170" width="180" height="100" as="geometry" />
        </mxCell>
        <mxCell id="w8WNKr-R_SODExmah_0f-18" value="" style="endArrow=classic;html=1;rounded=0;fontFamily=Helvetica;fontSize=12;fontColor=default;strokeWidth=2;strokeColor=#B5739D;" parent="N_THCtVZEUq2pG7Y3gLQ-1" edge="1">
          <mxGeometry width="50" height="50" relative="1" as="geometry">
            <mxPoint x="-700" y="-90" as="sourcePoint" />
            <mxPoint x="-660" y="-90" as="targetPoint" />
          </mxGeometry>
        </mxCell>
        <mxCell id="w8WNKr-R_SODExmah_0f-19" value="åå¸é¾æ¥" style="text;html=1;align=center;verticalAlign=middle;resizable=0;points=[];autosize=1;strokeColor=none;fillColor=none;fontSize=12;fontFamily=Helvetica;fontColor=default;" parent="N_THCtVZEUq2pG7Y3gLQ-1" vertex="1">
          <mxGeometry x="-660" y="-100" width="70" height="30" as="geometry" />
        </mxCell>
        <mxCell id="w8WNKr-R_SODExmah_0f-20" value="" style="endArrow=classic;startArrow=classic;html=1;rounded=0;fontFamily=Helvetica;fontSize=12;fontColor=default;dashed=1;" parent="N_THCtVZEUq2pG7Y3gLQ-1" edge="1">
          <mxGeometry width="50" height="50" relative="1" as="geometry">
            <mxPoint x="-700" y="-125.5" as="sourcePoint" />
            <mxPoint x="-660" y="-125.5" as="targetPoint" />
          </mxGeometry>
        </mxCell>
        <mxCell id="w8WNKr-R_SODExmah_0f-21" value="" style="endArrow=classic;html=1;rounded=0;fontFamily=Helvetica;fontSize=12;fontColor=default;" parent="N_THCtVZEUq2pG7Y3gLQ-1" edge="1">
          <mxGeometry width="50" height="50" relative="1" as="geometry">
            <mxPoint x="-700" y="-155.5" as="sourcePoint" />
            <mxPoint x="-660" y="-155.5" as="targetPoint" />
          </mxGeometry>
        </mxCell>
        <mxCell id="w8WNKr-R_SODExmah_0f-22" value="é¾è¡¨é¾æ¥" style="text;html=1;align=center;verticalAlign=middle;resizable=0;points=[];autosize=1;strokeColor=none;fillColor=none;fontSize=12;fontFamily=Helvetica;fontColor=default;" parent="N_THCtVZEUq2pG7Y3gLQ-1" vertex="1">
          <mxGeometry x="-660" y="-140" width="70" height="30" as="geometry" />
        </mxCell>
        <mxCell id="w8WNKr-R_SODExmah_0f-23" value="æéæå" style="text;html=1;align=center;verticalAlign=middle;resizable=0;points=[];autosize=1;strokeColor=none;fillColor=none;fontSize=12;fontFamily=Helvetica;fontColor=default;" parent="N_THCtVZEUq2pG7Y3gLQ-1" vertex="1">
          <mxGeometry x="-660" y="-170" width="70" height="30" as="geometry" />
        </mxCell>
        <mxCell id="w8WNKr-R_SODExmah_0f-27" value="" style="curved=1;endArrow=classic;html=1;rounded=0;fontFamily=Helvetica;fontSize=12;fontColor=default;entryX=0;entryY=0.75;entryDx=0;entryDy=0;exitX=0.133;exitY=0.977;exitDx=0;exitDy=0;exitPerimeter=0;dashed=1;startArrow=classic;startFill=1;" parent="N_THCtVZEUq2pG7Y3gLQ-1" source="1a218AyPlPdOFNmE6F3e-19" target="1a218AyPlPdOFNmE6F3e-14" edge="1">
          <mxGeometry width="50" height="50" relative="1" as="geometry">
            <mxPoint x="-590" y="-680" as="sourcePoint" />
            <mxPoint x="-540" y="-730" as="targetPoint" />
            <Array as="points">
              <mxPoint x="-490" y="-870" />
              <mxPoint x="-530" y="-730" />
            </Array>
          </mxGeometry>
        </mxCell>
        <mxCell id="w8WNKr-R_SODExmah_0f-28" value="mnt_instane" style="text;html=1;align=center;verticalAlign=middle;resizable=0;points=[];autosize=1;strokeColor=none;fillColor=none;fontSize=12;fontFamily=Helvetica;fontColor=default;" parent="N_THCtVZEUq2pG7Y3gLQ-1" vertex="1">
          <mxGeometry x="-470" y="-930" width="90" height="30" as="geometry" />
        </mxCell>
        <mxCell id="w8WNKr-R_SODExmah_0f-29" value="s_mounts" style="text;html=1;align=center;verticalAlign=middle;resizable=0;points=[];autosize=1;strokeColor=none;fillColor=none;fontSize=12;fontFamily=Helvetica;fontColor=default;" parent="N_THCtVZEUq2pG7Y3gLQ-1" vertex="1">
          <mxGeometry x="-530" y="-692" width="80" height="30" as="geometry" />
        </mxCell>
        <mxCell id="DcS9lHBUjRn4ihUIUwAS-19" style="edgeStyle=orthogonalEdgeStyle;rounded=0;orthogonalLoop=1;jettySize=auto;html=1;entryX=0;entryY=0.5;entryDx=0;entryDy=0;" parent="N_THCtVZEUq2pG7Y3gLQ-1" source="DcS9lHBUjRn4ihUIUwAS-0" target="DcS9lHBUjRn4ihUIUwAS-2" edge="1">
          <mxGeometry relative="1" as="geometry">
            <Array as="points">
              <mxPoint x="-490" y="125" />
              <mxPoint x="-490" y="125" />
            </Array>
          </mxGeometry>
        </mxCell>
        <mxCell id="DcS9lHBUjRn4ihUIUwAS-20" value="mnt" style="edgeLabel;html=1;align=center;verticalAlign=middle;resizable=0;points=[];" parent="DcS9lHBUjRn4ihUIUwAS-19" vertex="1" connectable="0">
          <mxGeometry x="-0.2308" y="-1" relative="1" as="geometry">
            <mxPoint as="offset" />
          </mxGeometry>
        </mxCell>
        <mxCell id="DcS9lHBUjRn4ihUIUwAS-0" value="&lt;font style=&quot;font-size: 20px;&quot;&gt;mount&lt;/font&gt;" style="html=1;whiteSpace=wrap;rounded=1;strokeColor=#82b366;fontFamily=Helvetica;fontSize=12;fillColor=#d5e8d4;" parent="N_THCtVZEUq2pG7Y3gLQ-1" vertex="1">
          <mxGeometry x="-630" y="100" width="110" height="50" as="geometry" />
        </mxCell>
        <mxCell id="DcS9lHBUjRn4ihUIUwAS-12" style="edgeStyle=orthogonalEdgeStyle;rounded=0;orthogonalLoop=1;jettySize=auto;html=1;entryX=0.5;entryY=0;entryDx=0;entryDy=0;" parent="N_THCtVZEUq2pG7Y3gLQ-1" source="DcS9lHBUjRn4ihUIUwAS-2" target="DcS9lHBUjRn4ihUIUwAS-6" edge="1">
          <mxGeometry relative="1" as="geometry" />
        </mxCell>
        <mxCell id="DcS9lHBUjRn4ihUIUwAS-13" value="mnt_sb" style="edgeLabel;html=1;align=center;verticalAlign=middle;resizable=0;points=[];" parent="DcS9lHBUjRn4ihUIUwAS-12" vertex="1" connectable="0">
          <mxGeometry x="-0.0889" y="-2" relative="1" as="geometry">
            <mxPoint as="offset" />
          </mxGeometry>
        </mxCell>
        <mxCell id="DcS9lHBUjRn4ihUIUwAS-21" style="edgeStyle=orthogonalEdgeStyle;rounded=0;orthogonalLoop=1;jettySize=auto;html=1;entryX=0;entryY=0.5;entryDx=0;entryDy=0;" parent="N_THCtVZEUq2pG7Y3gLQ-1" source="DcS9lHBUjRn4ihUIUwAS-2" target="DcS9lHBUjRn4ihUIUwAS-5" edge="1">
          <mxGeometry relative="1" as="geometry" />
        </mxCell>
        <mxCell id="DcS9lHBUjRn4ihUIUwAS-22" value="mnt_root" style="edgeLabel;html=1;align=center;verticalAlign=middle;resizable=0;points=[];" parent="DcS9lHBUjRn4ihUIUwAS-21" vertex="1" connectable="0">
          <mxGeometry x="0.037" y="-4" relative="1" as="geometry">
            <mxPoint x="-7" y="-19" as="offset" />
          </mxGeometry>
        </mxCell>
        <mxCell id="DcS9lHBUjRn4ihUIUwAS-2" value="&lt;font style=&quot;font-size: 20px;&quot;&gt;vfsmount&lt;/font&gt;" style="html=1;whiteSpace=wrap;rounded=1;strokeColor=#d6b656;fontFamily=Helvetica;fontSize=12;fillColor=#fff2cc;" parent="N_THCtVZEUq2pG7Y3gLQ-1" vertex="1">
          <mxGeometry x="-455" y="100" width="110" height="50" as="geometry" />
        </mxCell>
        <mxCell id="DcS9lHBUjRn4ihUIUwAS-5" value="&lt;font style=&quot;font-size: 20px;&quot;&gt;æ ¹dentry&lt;br&gt;&lt;/font&gt;" style="html=1;whiteSpace=wrap;rounded=1;strokeColor=#b85450;fontFamily=Helvetica;fontSize=12;fillColor=#f8cecc;" parent="N_THCtVZEUq2pG7Y3gLQ-1" vertex="1">
          <mxGeometry x="-290" y="100" width="120" height="50" as="geometry" />
        </mxCell>
        <mxCell id="DcS9lHBUjRn4ihUIUwAS-6" value="&lt;font style=&quot;font-size: 20px;&quot;&gt;super block&lt;br&gt;&lt;/font&gt;" style="html=1;whiteSpace=wrap;rounded=1;strokeColor=#A50040;fontFamily=Helvetica;fontSize=12;fontColor=#ffffff;fillColor=#d80073;" parent="N_THCtVZEUq2pG7Y3gLQ-1" vertex="1">
          <mxGeometry x="-460" y="240" width="120" height="50" as="geometry" />
        </mxCell>
        <mxCell id="DcS9lHBUjRn4ihUIUwAS-7" value="&lt;span style=&quot;font-size: 20px;&quot;&gt;dentry&lt;/span&gt;" style="html=1;whiteSpace=wrap;rounded=1;strokeColor=#d79b00;fontFamily=Helvetica;fontSize=12;fillColor=#ffe6cc;" parent="N_THCtVZEUq2pG7Y3gLQ-1" vertex="1">
          <mxGeometry x="-70" y="160" width="130" height="40" as="geometry" />
        </mxCell>
        <mxCell id="DcS9lHBUjRn4ihUIUwAS-8" value="&lt;span style=&quot;font-size: 20px;&quot;&gt;dentry&lt;/span&gt;" style="html=1;whiteSpace=wrap;rounded=1;strokeColor=#d79b00;fontFamily=Helvetica;fontSize=12;fillColor=#ffe6cc;" parent="N_THCtVZEUq2pG7Y3gLQ-1" vertex="1">
          <mxGeometry x="-70" y="50" width="130" height="40" as="geometry" />
        </mxCell>
        <mxCell id="DcS9lHBUjRn4ihUIUwAS-15" value="" style="curved=1;endArrow=classic;html=1;rounded=0;entryX=0;entryY=0.5;entryDx=0;entryDy=0;exitX=0.5;exitY=1;exitDx=0;exitDy=0;dashed=1;startArrow=classic;startFill=1;" parent="N_THCtVZEUq2pG7Y3gLQ-1" source="DcS9lHBUjRn4ihUIUwAS-0" target="DcS9lHBUjRn4ihUIUwAS-6" edge="1">
          <mxGeometry width="50" height="50" relative="1" as="geometry">
            <mxPoint x="-710" y="200" as="sourcePoint" />
            <mxPoint x="-550" y="270" as="targetPoint" />
            <Array as="points">
              <mxPoint x="-580" y="220" />
              <mxPoint x="-540" y="270" />
            </Array>
          </mxGeometry>
        </mxCell>
        <mxCell id="DcS9lHBUjRn4ihUIUwAS-17" value="mnt_instane" style="text;html=1;align=center;verticalAlign=middle;resizable=0;points=[];autosize=1;strokeColor=none;fillColor=none;fontSize=12;fontFamily=Helvetica;fontColor=default;" parent="N_THCtVZEUq2pG7Y3gLQ-1" vertex="1">
          <mxGeometry x="-600" y="165" width="90" height="30" as="geometry" />
        </mxCell>
        <mxCell id="DcS9lHBUjRn4ihUIUwAS-18" value="s_mounts" style="text;html=1;align=center;verticalAlign=middle;resizable=0;points=[];autosize=1;strokeColor=none;fillColor=none;fontSize=12;fontFamily=Helvetica;fontColor=default;" parent="N_THCtVZEUq2pG7Y3gLQ-1" vertex="1">
          <mxGeometry x="-550" y="270" width="80" height="30" as="geometry" />
        </mxCell>
        <mxCell id="DcS9lHBUjRn4ihUIUwAS-23" value="" style="curved=1;endArrow=classic;html=1;rounded=0;entryX=0;entryY=0.5;entryDx=0;entryDy=0;dashed=1;startArrow=classic;startFill=1;" parent="N_THCtVZEUq2pG7Y3gLQ-1" target="DcS9lHBUjRn4ihUIUwAS-8" edge="1">
          <mxGeometry width="50" height="50" relative="1" as="geometry">
            <mxPoint x="-170" y="120" as="sourcePoint" />
            <mxPoint x="-10" y="190" as="targetPoint" />
            <Array as="points">
              <mxPoint x="-120" y="50" />
            </Array>
          </mxGeometry>
        </mxCell>
        <mxCell id="DcS9lHBUjRn4ihUIUwAS-24" value="" style="curved=1;endArrow=classic;html=1;rounded=0;entryX=0;entryY=0.5;entryDx=0;entryDy=0;dashed=1;startArrow=classic;startFill=1;exitX=1.017;exitY=0.64;exitDx=0;exitDy=0;exitPerimeter=0;" parent="N_THCtVZEUq2pG7Y3gLQ-1" source="DcS9lHBUjRn4ihUIUwAS-5" edge="1">
          <mxGeometry width="50" height="50" relative="1" as="geometry">
            <mxPoint x="-170" y="230" as="sourcePoint" />
            <mxPoint x="-70" y="180" as="targetPoint" />
            <Array as="points">
              <mxPoint x="-130" y="180" />
            </Array>
          </mxGeometry>
        </mxCell>
        <mxCell id="DcS9lHBUjRn4ihUIUwAS-25" value="" style="curved=1;endArrow=classic;html=1;rounded=0;entryX=1;entryY=0.5;entryDx=0;entryDy=0;dashed=1;startArrow=classic;startFill=1;exitX=1;exitY=0.5;exitDx=0;exitDy=0;" parent="N_THCtVZEUq2pG7Y3gLQ-1" source="DcS9lHBUjRn4ihUIUwAS-8" target="DcS9lHBUjRn4ihUIUwAS-7" edge="1">
          <mxGeometry width="50" height="50" relative="1" as="geometry">
            <mxPoint x="115.98000000000002" y="80" as="sourcePoint" />
            <mxPoint x="213.98000000000002" y="128" as="targetPoint" />
            <Array as="points">
              <mxPoint x="120" y="120" />
            </Array>
          </mxGeometry>
        </mxCell>
        <mxCell id="DcS9lHBUjRn4ihUIUwAS-26" value="mnt" style="text;html=1;align=center;verticalAlign=middle;resizable=0;points=[];autosize=1;strokeColor=none;fillColor=none;fontSize=12;fontFamily=Helvetica;fontColor=default;" parent="N_THCtVZEUq2pG7Y3gLQ-1" vertex="1">
          <mxGeometry x="5" y="200" width="40" height="30" as="geometry" />
        </mxCell>
        <mxCell id="DcS9lHBUjRn4ihUIUwAS-28" value="" style="curved=1;endArrow=classic;html=1;rounded=0;entryX=0.15;entryY=1.02;entryDx=0;entryDy=0;entryPerimeter=0;exitX=0.75;exitY=0;exitDx=0;exitDy=0;startArrow=classic;startFill=1;" parent="N_THCtVZEUq2pG7Y3gLQ-1" source="DcS9lHBUjRn4ihUIUwAS-6" target="DcS9lHBUjRn4ihUIUwAS-5" edge="1">
          <mxGeometry width="50" height="50" relative="1" as="geometry">
            <mxPoint x="-330" y="220" as="sourcePoint" />
            <mxPoint x="-170" y="290" as="targetPoint" />
            <Array as="points">
              <mxPoint x="-350" y="220" />
              <mxPoint x="-340" y="210" />
              <mxPoint x="-290" y="220" />
            </Array>
          </mxGeometry>
        </mxCell>
        <mxCell id="DcS9lHBUjRn4ihUIUwAS-29" value="d_sb" style="edgeLabel;html=1;align=center;verticalAlign=middle;resizable=0;points=[];" parent="DcS9lHBUjRn4ihUIUwAS-28" vertex="1" connectable="0">
          <mxGeometry x="0.6675" y="-2" relative="1" as="geometry">
            <mxPoint as="offset" />
          </mxGeometry>
        </mxCell>
        <mxCell id="DcS9lHBUjRn4ihUIUwAS-30" value="s_root" style="edgeLabel;html=1;align=center;verticalAlign=middle;resizable=0;points=[];" parent="DcS9lHBUjRn4ihUIUwAS-28" vertex="1" connectable="0">
          <mxGeometry x="-0.7081" y="-1" relative="1" as="geometry">
            <mxPoint as="offset" />
          </mxGeometry>
        </mxCell>
        <mxCell id="DcS9lHBUjRn4ihUIUwAS-33" value="" style="endArrow=classic;html=1;rounded=0;fontFamily=Helvetica;fontSize=12;fontColor=default;strokeWidth=2;strokeColor=#B5739D;" parent="N_THCtVZEUq2pG7Y3gLQ-1" edge="1">
          <mxGeometry width="50" height="50" relative="1" as="geometry">
            <mxPoint x="-630" y="120" as="sourcePoint" />
            <mxPoint x="-680" y="120" as="targetPoint" />
          </mxGeometry>
        </mxCell>
        <mxCell id="oN99Mg50NwHaMWB_9zhL-0" style="edgeStyle=orthogonalEdgeStyle;rounded=0;orthogonalLoop=1;jettySize=auto;html=1;entryX=0;entryY=0.5;entryDx=0;entryDy=0;" parent="N_THCtVZEUq2pG7Y3gLQ-1" source="oN99Mg50NwHaMWB_9zhL-2" target="oN99Mg50NwHaMWB_9zhL-7" edge="1">
          <mxGeometry relative="1" as="geometry">
            <Array as="points">
              <mxPoint x="-500" y="445" />
              <mxPoint x="-500" y="445" />
            </Array>
          </mxGeometry>
        </mxCell>
        <mxCell id="oN99Mg50NwHaMWB_9zhL-1" value="mnt" style="edgeLabel;html=1;align=center;verticalAlign=middle;resizable=0;points=[];" parent="oN99Mg50NwHaMWB_9zhL-0" vertex="1" connectable="0">
          <mxGeometry x="-0.2308" y="-1" relative="1" as="geometry">
            <mxPoint as="offset" />
          </mxGeometry>
        </mxCell>
        <mxCell id="oN99Mg50NwHaMWB_9zhL-56" style="edgeStyle=orthogonalEdgeStyle;rounded=0;orthogonalLoop=1;jettySize=auto;html=1;entryX=0;entryY=0.75;entryDx=0;entryDy=0;" parent="N_THCtVZEUq2pG7Y3gLQ-1" source="oN99Mg50NwHaMWB_9zhL-2" target="DcS9lHBUjRn4ihUIUwAS-0" edge="1">
          <mxGeometry relative="1" as="geometry">
            <Array as="points">
              <mxPoint x="-670" y="445" />
              <mxPoint x="-670" y="138" />
            </Array>
          </mxGeometry>
        </mxCell>
        <mxCell id="oN99Mg50NwHaMWB_9zhL-57" value="mnt_parent" style="edgeLabel;html=1;align=center;verticalAlign=middle;resizable=0;points=[];" parent="oN99Mg50NwHaMWB_9zhL-56" vertex="1" connectable="0">
          <mxGeometry x="0.2821" y="1" relative="1" as="geometry">
            <mxPoint x="11" y="147" as="offset" />
          </mxGeometry>
        </mxCell>
        <mxCell id="oN99Mg50NwHaMWB_9zhL-2" value="&lt;font style=&quot;font-size: 20px;&quot;&gt;mount&lt;/font&gt;" style="html=1;whiteSpace=wrap;rounded=1;strokeColor=#82b366;fontFamily=Helvetica;fontSize=12;fillColor=#d5e8d4;" parent="N_THCtVZEUq2pG7Y3gLQ-1" vertex="1">
          <mxGeometry x="-640" y="420" width="110" height="50" as="geometry" />
        </mxCell>
        <mxCell id="oN99Mg50NwHaMWB_9zhL-3" style="edgeStyle=orthogonalEdgeStyle;rounded=0;orthogonalLoop=1;jettySize=auto;html=1;entryX=0.5;entryY=0;entryDx=0;entryDy=0;" parent="N_THCtVZEUq2pG7Y3gLQ-1" source="oN99Mg50NwHaMWB_9zhL-7" target="oN99Mg50NwHaMWB_9zhL-9" edge="1">
          <mxGeometry relative="1" as="geometry" />
        </mxCell>
        <mxCell id="oN99Mg50NwHaMWB_9zhL-4" value="mnt_sb" style="edgeLabel;html=1;align=center;verticalAlign=middle;resizable=0;points=[];" parent="oN99Mg50NwHaMWB_9zhL-3" vertex="1" connectable="0">
          <mxGeometry x="-0.0889" y="-2" relative="1" as="geometry">
            <mxPoint as="offset" />
          </mxGeometry>
        </mxCell>
        <mxCell id="oN99Mg50NwHaMWB_9zhL-5" style="edgeStyle=orthogonalEdgeStyle;rounded=0;orthogonalLoop=1;jettySize=auto;html=1;entryX=0;entryY=0.5;entryDx=0;entryDy=0;" parent="N_THCtVZEUq2pG7Y3gLQ-1" source="oN99Mg50NwHaMWB_9zhL-7" target="oN99Mg50NwHaMWB_9zhL-8" edge="1">
          <mxGeometry relative="1" as="geometry" />
        </mxCell>
        <mxCell id="oN99Mg50NwHaMWB_9zhL-6" value="mnt_root" style="edgeLabel;html=1;align=center;verticalAlign=middle;resizable=0;points=[];" parent="oN99Mg50NwHaMWB_9zhL-5" vertex="1" connectable="0">
          <mxGeometry x="0.037" y="-4" relative="1" as="geometry">
            <mxPoint x="-7" y="-19" as="offset" />
          </mxGeometry>
        </mxCell>
        <mxCell id="oN99Mg50NwHaMWB_9zhL-7" value="&lt;font style=&quot;font-size: 20px;&quot;&gt;vfsmount&lt;/font&gt;" style="html=1;whiteSpace=wrap;rounded=1;strokeColor=#d6b656;fontFamily=Helvetica;fontSize=12;fillColor=#fff2cc;" parent="N_THCtVZEUq2pG7Y3gLQ-1" vertex="1">
          <mxGeometry x="-465" y="420" width="110" height="50" as="geometry" />
        </mxCell>
        <mxCell id="oN99Mg50NwHaMWB_9zhL-8" value="&lt;font style=&quot;font-size: 20px;&quot;&gt;æ ¹dentry&lt;br&gt;&lt;/font&gt;" style="html=1;whiteSpace=wrap;rounded=1;strokeColor=#b85450;fontFamily=Helvetica;fontSize=12;fillColor=#f8cecc;" parent="N_THCtVZEUq2pG7Y3gLQ-1" vertex="1">
          <mxGeometry x="-300" y="420" width="120" height="50" as="geometry" />
        </mxCell>
        <mxCell id="oN99Mg50NwHaMWB_9zhL-9" value="&lt;font style=&quot;font-size: 20px;&quot;&gt;super block&lt;br&gt;&lt;/font&gt;" style="html=1;whiteSpace=wrap;rounded=1;strokeColor=#A50040;fontFamily=Helvetica;fontSize=12;fontColor=#ffffff;fillColor=#d80073;" parent="N_THCtVZEUq2pG7Y3gLQ-1" vertex="1">
          <mxGeometry x="-470" y="560" width="120" height="50" as="geometry" />
        </mxCell>
        <mxCell id="oN99Mg50NwHaMWB_9zhL-10" value="&lt;span style=&quot;font-size: 20px;&quot;&gt;dentry&lt;/span&gt;" style="html=1;whiteSpace=wrap;rounded=1;strokeColor=#d79b00;fontFamily=Helvetica;fontSize=12;fillColor=#ffe6cc;" parent="N_THCtVZEUq2pG7Y3gLQ-1" vertex="1">
          <mxGeometry x="-80" y="480" width="130" height="40" as="geometry" />
        </mxCell>
        <mxCell id="oN99Mg50NwHaMWB_9zhL-11" value="&lt;span style=&quot;font-size: 20px;&quot;&gt;dentry&lt;/span&gt;" style="html=1;whiteSpace=wrap;rounded=1;strokeColor=#d79b00;fontFamily=Helvetica;fontSize=12;fillColor=#ffe6cc;" parent="N_THCtVZEUq2pG7Y3gLQ-1" vertex="1">
          <mxGeometry x="-80" y="370" width="130" height="40" as="geometry" />
        </mxCell>
        <mxCell id="oN99Mg50NwHaMWB_9zhL-12" value="" style="curved=1;endArrow=classic;html=1;rounded=0;entryX=0;entryY=0.5;entryDx=0;entryDy=0;exitX=0.5;exitY=1;exitDx=0;exitDy=0;dashed=1;startArrow=classic;startFill=1;" parent="N_THCtVZEUq2pG7Y3gLQ-1" source="oN99Mg50NwHaMWB_9zhL-2" target="oN99Mg50NwHaMWB_9zhL-9" edge="1">
          <mxGeometry width="50" height="50" relative="1" as="geometry">
            <mxPoint x="-720" y="520" as="sourcePoint" />
            <mxPoint x="-560" y="590" as="targetPoint" />
            <Array as="points">
              <mxPoint x="-590" y="540" />
              <mxPoint x="-550" y="590" />
            </Array>
          </mxGeometry>
        </mxCell>
        <mxCell id="oN99Mg50NwHaMWB_9zhL-13" value="mnt_instane" style="text;html=1;align=center;verticalAlign=middle;resizable=0;points=[];autosize=1;strokeColor=none;fillColor=none;fontSize=12;fontFamily=Helvetica;fontColor=default;" parent="N_THCtVZEUq2pG7Y3gLQ-1" vertex="1">
          <mxGeometry x="-600" y="480" width="90" height="30" as="geometry" />
        </mxCell>
        <mxCell id="oN99Mg50NwHaMWB_9zhL-14" value="s_mounts" style="text;html=1;align=center;verticalAlign=middle;resizable=0;points=[];autosize=1;strokeColor=none;fillColor=none;fontSize=12;fontFamily=Helvetica;fontColor=default;" parent="N_THCtVZEUq2pG7Y3gLQ-1" vertex="1">
          <mxGeometry x="-560" y="590" width="80" height="30" as="geometry" />
        </mxCell>
        <mxCell id="oN99Mg50NwHaMWB_9zhL-15" value="" style="curved=1;endArrow=classic;html=1;rounded=0;entryX=0;entryY=0.5;entryDx=0;entryDy=0;dashed=1;startArrow=classic;startFill=1;" parent="N_THCtVZEUq2pG7Y3gLQ-1" target="oN99Mg50NwHaMWB_9zhL-11" edge="1">
          <mxGeometry width="50" height="50" relative="1" as="geometry">
            <mxPoint x="-180" y="440" as="sourcePoint" />
            <mxPoint x="-20" y="510" as="targetPoint" />
            <Array as="points">
              <mxPoint x="-130" y="370" />
            </Array>
          </mxGeometry>
        </mxCell>
        <mxCell id="oN99Mg50NwHaMWB_9zhL-16" value="" style="curved=1;endArrow=classic;html=1;rounded=0;entryX=0;entryY=0.5;entryDx=0;entryDy=0;dashed=1;startArrow=classic;startFill=1;exitX=1.017;exitY=0.64;exitDx=0;exitDy=0;exitPerimeter=0;" parent="N_THCtVZEUq2pG7Y3gLQ-1" source="oN99Mg50NwHaMWB_9zhL-8" edge="1">
          <mxGeometry width="50" height="50" relative="1" as="geometry">
            <mxPoint x="-180" y="550" as="sourcePoint" />
            <mxPoint x="-80" y="500" as="targetPoint" />
            <Array as="points">
              <mxPoint x="-140" y="500" />
            </Array>
          </mxGeometry>
        </mxCell>
        <mxCell id="oN99Mg50NwHaMWB_9zhL-17" value="" style="curved=1;endArrow=classic;html=1;rounded=0;entryX=1;entryY=0.5;entryDx=0;entryDy=0;dashed=1;startArrow=classic;startFill=1;exitX=1;exitY=0.5;exitDx=0;exitDy=0;" parent="N_THCtVZEUq2pG7Y3gLQ-1" source="oN99Mg50NwHaMWB_9zhL-11" target="oN99Mg50NwHaMWB_9zhL-10" edge="1">
          <mxGeometry width="50" height="50" relative="1" as="geometry">
            <mxPoint x="105.98000000000002" y="400" as="sourcePoint" />
            <mxPoint x="203.98000000000002" y="448" as="targetPoint" />
            <Array as="points">
              <mxPoint x="110" y="440" />
            </Array>
          </mxGeometry>
        </mxCell>
        <mxCell id="oN99Mg50NwHaMWB_9zhL-19" value="" style="curved=1;endArrow=classic;html=1;rounded=0;entryX=0.15;entryY=1.02;entryDx=0;entryDy=0;entryPerimeter=0;exitX=0.75;exitY=0;exitDx=0;exitDy=0;startArrow=classic;startFill=1;" parent="N_THCtVZEUq2pG7Y3gLQ-1" source="oN99Mg50NwHaMWB_9zhL-9" target="oN99Mg50NwHaMWB_9zhL-8" edge="1">
          <mxGeometry width="50" height="50" relative="1" as="geometry">
            <mxPoint x="-340" y="540" as="sourcePoint" />
            <mxPoint x="-180" y="610" as="targetPoint" />
            <Array as="points">
              <mxPoint x="-360" y="540" />
              <mxPoint x="-350" y="530" />
              <mxPoint x="-300" y="540" />
            </Array>
          </mxGeometry>
        </mxCell>
        <mxCell id="oN99Mg50NwHaMWB_9zhL-20" value="d_sb" style="edgeLabel;html=1;align=center;verticalAlign=middle;resizable=0;points=[];" parent="oN99Mg50NwHaMWB_9zhL-19" vertex="1" connectable="0">
          <mxGeometry x="0.6675" y="-2" relative="1" as="geometry">
            <mxPoint as="offset" />
          </mxGeometry>
        </mxCell>
        <mxCell id="oN99Mg50NwHaMWB_9zhL-21" value="s_root" style="edgeLabel;html=1;align=center;verticalAlign=middle;resizable=0;points=[];" parent="oN99Mg50NwHaMWB_9zhL-19" vertex="1" connectable="0">
          <mxGeometry x="-0.7081" y="-1" relative="1" as="geometry">
            <mxPoint as="offset" />
          </mxGeometry>
        </mxCell>
        <mxCell id="oN99Mg50NwHaMWB_9zhL-22" value="" style="endArrow=classic;html=1;rounded=0;fontFamily=Helvetica;fontSize=12;fontColor=default;strokeWidth=2;strokeColor=#B5739D;" parent="N_THCtVZEUq2pG7Y3gLQ-1" edge="1">
          <mxGeometry width="50" height="50" relative="1" as="geometry">
            <mxPoint x="-640" y="450" as="sourcePoint" />
            <mxPoint x="-690" y="450" as="targetPoint" />
          </mxGeometry>
        </mxCell>
        <mxCell id="oN99Mg50NwHaMWB_9zhL-23" style="edgeStyle=orthogonalEdgeStyle;rounded=0;orthogonalLoop=1;jettySize=auto;html=1;entryX=0;entryY=0.5;entryDx=0;entryDy=0;" parent="N_THCtVZEUq2pG7Y3gLQ-1" source="oN99Mg50NwHaMWB_9zhL-25" target="oN99Mg50NwHaMWB_9zhL-30" edge="1">
          <mxGeometry relative="1" as="geometry">
            <Array as="points">
              <mxPoint x="-500" y="795" />
              <mxPoint x="-500" y="795" />
            </Array>
          </mxGeometry>
        </mxCell>
        <mxCell id="oN99Mg50NwHaMWB_9zhL-24" value="mnt" style="edgeLabel;html=1;align=center;verticalAlign=middle;resizable=0;points=[];" parent="oN99Mg50NwHaMWB_9zhL-23" vertex="1" connectable="0">
          <mxGeometry x="-0.2308" y="-1" relative="1" as="geometry">
            <mxPoint as="offset" />
          </mxGeometry>
        </mxCell>
        <mxCell id="oN99Mg50NwHaMWB_9zhL-58" style="edgeStyle=orthogonalEdgeStyle;rounded=0;orthogonalLoop=1;jettySize=auto;html=1;entryX=0;entryY=0.75;entryDx=0;entryDy=0;" parent="N_THCtVZEUq2pG7Y3gLQ-1" source="oN99Mg50NwHaMWB_9zhL-25" target="oN99Mg50NwHaMWB_9zhL-2" edge="1">
          <mxGeometry relative="1" as="geometry">
            <Array as="points">
              <mxPoint x="-660" y="795" />
              <mxPoint x="-660" y="458" />
            </Array>
          </mxGeometry>
        </mxCell>
        <mxCell id="oN99Mg50NwHaMWB_9zhL-60" value="mnt_parent" style="edgeLabel;html=1;align=center;verticalAlign=middle;resizable=0;points=[];" parent="oN99Mg50NwHaMWB_9zhL-58" vertex="1" connectable="0">
          <mxGeometry x="-0.4172" y="-1" relative="1" as="geometry">
            <mxPoint as="offset" />
          </mxGeometry>
        </mxCell>
        <mxCell id="oN99Mg50NwHaMWB_9zhL-25" value="&lt;font style=&quot;font-size: 20px;&quot;&gt;mount&lt;/font&gt;" style="html=1;whiteSpace=wrap;rounded=1;strokeColor=#82b366;fontFamily=Helvetica;fontSize=12;fillColor=#d5e8d4;" parent="N_THCtVZEUq2pG7Y3gLQ-1" vertex="1">
          <mxGeometry x="-640" y="770" width="110" height="50" as="geometry" />
        </mxCell>
        <mxCell id="oN99Mg50NwHaMWB_9zhL-26" style="edgeStyle=orthogonalEdgeStyle;rounded=0;orthogonalLoop=1;jettySize=auto;html=1;entryX=0.5;entryY=0;entryDx=0;entryDy=0;" parent="N_THCtVZEUq2pG7Y3gLQ-1" source="oN99Mg50NwHaMWB_9zhL-30" target="oN99Mg50NwHaMWB_9zhL-32" edge="1">
          <mxGeometry relative="1" as="geometry" />
        </mxCell>
        <mxCell id="oN99Mg50NwHaMWB_9zhL-27" value="mnt_sb" style="edgeLabel;html=1;align=center;verticalAlign=middle;resizable=0;points=[];" parent="oN99Mg50NwHaMWB_9zhL-26" vertex="1" connectable="0">
          <mxGeometry x="-0.0889" y="-2" relative="1" as="geometry">
            <mxPoint as="offset" />
          </mxGeometry>
        </mxCell>
        <mxCell id="oN99Mg50NwHaMWB_9zhL-28" style="edgeStyle=orthogonalEdgeStyle;rounded=0;orthogonalLoop=1;jettySize=auto;html=1;entryX=0;entryY=0.5;entryDx=0;entryDy=0;" parent="N_THCtVZEUq2pG7Y3gLQ-1" source="oN99Mg50NwHaMWB_9zhL-30" target="oN99Mg50NwHaMWB_9zhL-31" edge="1">
          <mxGeometry relative="1" as="geometry" />
        </mxCell>
        <mxCell id="oN99Mg50NwHaMWB_9zhL-29" value="mnt_root" style="edgeLabel;html=1;align=center;verticalAlign=middle;resizable=0;points=[];" parent="oN99Mg50NwHaMWB_9zhL-28" vertex="1" connectable="0">
          <mxGeometry x="0.037" y="-4" relative="1" as="geometry">
            <mxPoint x="-7" y="-19" as="offset" />
          </mxGeometry>
        </mxCell>
        <mxCell id="oN99Mg50NwHaMWB_9zhL-30" value="&lt;font style=&quot;font-size: 20px;&quot;&gt;vfsmount&lt;/font&gt;" style="html=1;whiteSpace=wrap;rounded=1;strokeColor=#d6b656;fontFamily=Helvetica;fontSize=12;fillColor=#fff2cc;" parent="N_THCtVZEUq2pG7Y3gLQ-1" vertex="1">
          <mxGeometry x="-465" y="770" width="110" height="50" as="geometry" />
        </mxCell>
        <mxCell id="oN99Mg50NwHaMWB_9zhL-31" value="&lt;font style=&quot;font-size: 20px;&quot;&gt;æ ¹dentry&lt;br&gt;&lt;/font&gt;" style="html=1;whiteSpace=wrap;rounded=1;strokeColor=#b85450;fontFamily=Helvetica;fontSize=12;fillColor=#f8cecc;" parent="N_THCtVZEUq2pG7Y3gLQ-1" vertex="1">
          <mxGeometry x="-300" y="770" width="120" height="50" as="geometry" />
        </mxCell>
        <mxCell id="oN99Mg50NwHaMWB_9zhL-32" value="&lt;font style=&quot;font-size: 20px;&quot;&gt;super block&lt;br&gt;&lt;/font&gt;" style="html=1;whiteSpace=wrap;rounded=1;strokeColor=#A50040;fontFamily=Helvetica;fontSize=12;fontColor=#ffffff;fillColor=#d80073;" parent="N_THCtVZEUq2pG7Y3gLQ-1" vertex="1">
          <mxGeometry x="-470" y="910" width="120" height="50" as="geometry" />
        </mxCell>
        <mxCell id="oN99Mg50NwHaMWB_9zhL-33" value="&lt;span style=&quot;font-size: 20px;&quot;&gt;dentry&lt;/span&gt;" style="html=1;whiteSpace=wrap;rounded=1;strokeColor=#d79b00;fontFamily=Helvetica;fontSize=12;fillColor=#ffe6cc;" parent="N_THCtVZEUq2pG7Y3gLQ-1" vertex="1">
          <mxGeometry x="-80" y="830" width="130" height="40" as="geometry" />
        </mxCell>
        <mxCell id="oN99Mg50NwHaMWB_9zhL-34" value="&lt;span style=&quot;font-size: 20px;&quot;&gt;dentry&lt;/span&gt;" style="html=1;whiteSpace=wrap;rounded=1;strokeColor=#d79b00;fontFamily=Helvetica;fontSize=12;fillColor=#ffe6cc;" parent="N_THCtVZEUq2pG7Y3gLQ-1" vertex="1">
          <mxGeometry x="-80" y="720" width="130" height="40" as="geometry" />
        </mxCell>
        <mxCell id="oN99Mg50NwHaMWB_9zhL-35" value="" style="curved=1;endArrow=classic;html=1;rounded=0;entryX=0;entryY=0.5;entryDx=0;entryDy=0;exitX=0.5;exitY=1;exitDx=0;exitDy=0;dashed=1;startArrow=classic;startFill=1;" parent="N_THCtVZEUq2pG7Y3gLQ-1" source="oN99Mg50NwHaMWB_9zhL-25" target="oN99Mg50NwHaMWB_9zhL-32" edge="1">
          <mxGeometry width="50" height="50" relative="1" as="geometry">
            <mxPoint x="-720" y="870" as="sourcePoint" />
            <mxPoint x="-560" y="940" as="targetPoint" />
            <Array as="points">
              <mxPoint x="-590" y="890" />
              <mxPoint x="-550" y="940" />
            </Array>
          </mxGeometry>
        </mxCell>
        <mxCell id="oN99Mg50NwHaMWB_9zhL-36" value="mnt_instane" style="text;html=1;align=center;verticalAlign=middle;resizable=0;points=[];autosize=1;strokeColor=none;fillColor=none;fontSize=12;fontFamily=Helvetica;fontColor=default;" parent="N_THCtVZEUq2pG7Y3gLQ-1" vertex="1">
          <mxGeometry x="-670" y="835" width="90" height="30" as="geometry" />
        </mxCell>
        <mxCell id="oN99Mg50NwHaMWB_9zhL-37" value="s_mounts" style="text;html=1;align=center;verticalAlign=middle;resizable=0;points=[];autosize=1;strokeColor=none;fillColor=none;fontSize=12;fontFamily=Helvetica;fontColor=default;" parent="N_THCtVZEUq2pG7Y3gLQ-1" vertex="1">
          <mxGeometry x="-560" y="940" width="80" height="30" as="geometry" />
        </mxCell>
        <mxCell id="oN99Mg50NwHaMWB_9zhL-38" value="" style="curved=1;endArrow=classic;html=1;rounded=0;entryX=0;entryY=0.5;entryDx=0;entryDy=0;dashed=1;startArrow=classic;startFill=1;" parent="N_THCtVZEUq2pG7Y3gLQ-1" target="oN99Mg50NwHaMWB_9zhL-34" edge="1">
          <mxGeometry width="50" height="50" relative="1" as="geometry">
            <mxPoint x="-180" y="790" as="sourcePoint" />
            <mxPoint x="-20" y="860" as="targetPoint" />
            <Array as="points">
              <mxPoint x="-130" y="720" />
            </Array>
          </mxGeometry>
        </mxCell>
        <mxCell id="oN99Mg50NwHaMWB_9zhL-39" value="" style="curved=1;endArrow=classic;html=1;rounded=0;entryX=0;entryY=0.5;entryDx=0;entryDy=0;dashed=1;startArrow=classic;startFill=1;exitX=1.017;exitY=0.64;exitDx=0;exitDy=0;exitPerimeter=0;" parent="N_THCtVZEUq2pG7Y3gLQ-1" source="oN99Mg50NwHaMWB_9zhL-31" edge="1">
          <mxGeometry width="50" height="50" relative="1" as="geometry">
            <mxPoint x="-180" y="900" as="sourcePoint" />
            <mxPoint x="-80" y="850" as="targetPoint" />
            <Array as="points">
              <mxPoint x="-140" y="850" />
            </Array>
          </mxGeometry>
        </mxCell>
        <mxCell id="oN99Mg50NwHaMWB_9zhL-40" value="" style="curved=1;endArrow=classic;html=1;rounded=0;entryX=1;entryY=0.5;entryDx=0;entryDy=0;dashed=1;startArrow=classic;startFill=1;exitX=1;exitY=0.5;exitDx=0;exitDy=0;" parent="N_THCtVZEUq2pG7Y3gLQ-1" source="oN99Mg50NwHaMWB_9zhL-34" target="oN99Mg50NwHaMWB_9zhL-33" edge="1">
          <mxGeometry width="50" height="50" relative="1" as="geometry">
            <mxPoint x="105.98000000000002" y="750" as="sourcePoint" />
            <mxPoint x="203.98000000000002" y="798" as="targetPoint" />
            <Array as="points">
              <mxPoint x="110" y="790" />
            </Array>
          </mxGeometry>
        </mxCell>
        <mxCell id="oN99Mg50NwHaMWB_9zhL-42" value="" style="curved=1;endArrow=classic;html=1;rounded=0;entryX=0.15;entryY=1.02;entryDx=0;entryDy=0;entryPerimeter=0;exitX=0.75;exitY=0;exitDx=0;exitDy=0;startArrow=classic;startFill=1;" parent="N_THCtVZEUq2pG7Y3gLQ-1" source="oN99Mg50NwHaMWB_9zhL-32" target="oN99Mg50NwHaMWB_9zhL-31" edge="1">
          <mxGeometry width="50" height="50" relative="1" as="geometry">
            <mxPoint x="-340" y="890" as="sourcePoint" />
            <mxPoint x="-180" y="960" as="targetPoint" />
            <Array as="points">
              <mxPoint x="-360" y="890" />
              <mxPoint x="-350" y="880" />
              <mxPoint x="-300" y="890" />
            </Array>
          </mxGeometry>
        </mxCell>
        <mxCell id="oN99Mg50NwHaMWB_9zhL-43" value="d_sb" style="edgeLabel;html=1;align=center;verticalAlign=middle;resizable=0;points=[];" parent="oN99Mg50NwHaMWB_9zhL-42" vertex="1" connectable="0">
          <mxGeometry x="0.6675" y="-2" relative="1" as="geometry">
            <mxPoint as="offset" />
          </mxGeometry>
        </mxCell>
        <mxCell id="oN99Mg50NwHaMWB_9zhL-44" value="s_root" style="edgeLabel;html=1;align=center;verticalAlign=middle;resizable=0;points=[];" parent="oN99Mg50NwHaMWB_9zhL-42" vertex="1" connectable="0">
          <mxGeometry x="-0.7081" y="-1" relative="1" as="geometry">
            <mxPoint as="offset" />
          </mxGeometry>
        </mxCell>
        <mxCell id="oN99Mg50NwHaMWB_9zhL-45" value="" style="endArrow=classic;html=1;rounded=0;fontFamily=Helvetica;fontSize=12;fontColor=default;strokeWidth=2;strokeColor=#B5739D;" parent="N_THCtVZEUq2pG7Y3gLQ-1" edge="1">
          <mxGeometry width="50" height="50" relative="1" as="geometry">
            <mxPoint x="-640" y="810" as="sourcePoint" />
            <mxPoint x="-690" y="810" as="targetPoint" />
          </mxGeometry>
        </mxCell>
        <mxCell id="oN99Mg50NwHaMWB_9zhL-46" value="" style="curved=1;endArrow=classic;html=1;rounded=0;exitX=0.75;exitY=0;exitDx=0;exitDy=0;entryX=0.369;entryY=1.1;entryDx=0;entryDy=0;entryPerimeter=0;strokeColor=#000000;strokeWidth=2;" parent="N_THCtVZEUq2pG7Y3gLQ-1" source="oN99Mg50NwHaMWB_9zhL-2" target="DcS9lHBUjRn4ihUIUwAS-7" edge="1">
          <mxGeometry width="50" height="50" relative="1" as="geometry">
            <mxPoint x="-170" y="260" as="sourcePoint" />
            <mxPoint x="-10" y="330" as="targetPoint" />
            <Array as="points">
              <mxPoint x="-240" y="310" />
              <mxPoint x="-100" y="340" />
            </Array>
          </mxGeometry>
        </mxCell>
        <mxCell id="oN99Mg50NwHaMWB_9zhL-47" value="mnt_mountpoint" style="edgeLabel;html=1;align=center;verticalAlign=middle;resizable=0;points=[];" parent="oN99Mg50NwHaMWB_9zhL-46" vertex="1" connectable="0">
          <mxGeometry x="-0.297" y="-14" relative="1" as="geometry">
            <mxPoint as="offset" />
          </mxGeometry>
        </mxCell>
        <mxCell id="oN99Mg50NwHaMWB_9zhL-49" value="" style="curved=1;endArrow=classic;html=1;rounded=0;exitX=0.75;exitY=0;exitDx=0;exitDy=0;entryX=0.583;entryY=1.06;entryDx=0;entryDy=0;entryPerimeter=0;strokeColor=#000000;strokeWidth=2;" parent="N_THCtVZEUq2pG7Y3gLQ-1" target="oN99Mg50NwHaMWB_9zhL-8" edge="1">
          <mxGeometry width="50" height="50" relative="1" as="geometry">
            <mxPoint x="-584.97" y="770" as="sourcePoint" />
            <mxPoint x="-49.97" y="554" as="targetPoint" />
            <Array as="points">
              <mxPoint x="-267.97" y="660" />
            </Array>
          </mxGeometry>
        </mxCell>
        <mxCell id="oN99Mg50NwHaMWB_9zhL-50" value="mnt_mountpoint" style="edgeLabel;html=1;align=center;verticalAlign=middle;resizable=0;points=[];" parent="oN99Mg50NwHaMWB_9zhL-49" vertex="1" connectable="0">
          <mxGeometry x="-0.297" y="-14" relative="1" as="geometry">
            <mxPoint x="-14" y="-33" as="offset" />
          </mxGeometry>
        </mxCell>
        <mxCell id="oN99Mg50NwHaMWB_9zhL-51" value="&lt;font color=&quot;#ff0000&quot;&gt;d_flags |= DCACHE_MOUNTED&lt;/font&gt;" style="text;html=1;align=left;verticalAlign=middle;resizable=0;points=[];autosize=1;strokeColor=none;fillColor=none;" parent="N_THCtVZEUq2pG7Y3gLQ-1" vertex="1">
          <mxGeometry x="-70" y="130" width="200" height="30" as="geometry" />
        </mxCell>
        <mxCell id="oN99Mg50NwHaMWB_9zhL-52" value="&lt;font color=&quot;#ff0000&quot;&gt;d_flags |= DCACHE_MOUNTED&lt;/font&gt;" style="text;html=1;align=left;verticalAlign=middle;resizable=0;points=[];autosize=1;strokeColor=none;fillColor=none;" parent="N_THCtVZEUq2pG7Y3gLQ-1" vertex="1">
          <mxGeometry x="-310" y="390" width="200" height="30" as="geometry" />
        </mxCell>
        <mxCell id="pZIEth1zFZQmeEKXRvTX-0" value="" style="endArrow=classic;startArrow=classic;html=1;rounded=0;entryX=0.091;entryY=1;entryDx=0;entryDy=0;entryPerimeter=0;exitX=0.25;exitY=0;exitDx=0;exitDy=0;dashed=1;" parent="N_THCtVZEUq2pG7Y3gLQ-1" source="oN99Mg50NwHaMWB_9zhL-2" edge="1">
          <mxGeometry width="50" height="50" relative="1" as="geometry">
            <mxPoint x="-611.26" y="420" as="sourcePoint" />
            <mxPoint x="-618.75" y="150" as="targetPoint" />
          </mxGeometry>
        </mxCell>
        <mxCell id="pZIEth1zFZQmeEKXRvTX-1" value="mnt_child" style="edgeLabel;html=1;align=center;verticalAlign=middle;resizable=0;points=[];" parent="pZIEth1zFZQmeEKXRvTX-0" vertex="1" connectable="0">
          <mxGeometry x="-0.7856" y="-2" relative="1" as="geometry">
            <mxPoint as="offset" />
          </mxGeometry>
        </mxCell>
        <mxCell id="pZIEth1zFZQmeEKXRvTX-2" value="mnt_mounts" style="edgeLabel;html=1;align=center;verticalAlign=middle;resizable=0;points=[];" parent="pZIEth1zFZQmeEKXRvTX-0" vertex="1" connectable="0">
          <mxGeometry x="0.7556" relative="1" as="geometry">
            <mxPoint as="offset" />
          </mxGeometry>
        </mxCell>
        <mxCell id="pZIEth1zFZQmeEKXRvTX-3" value="" style="endArrow=classic;startArrow=classic;html=1;rounded=0;entryX=0.091;entryY=1;entryDx=0;entryDy=0;entryPerimeter=0;exitX=0.25;exitY=0;exitDx=0;exitDy=0;dashed=1;" parent="N_THCtVZEUq2pG7Y3gLQ-1" source="oN99Mg50NwHaMWB_9zhL-25" edge="1">
          <mxGeometry width="50" height="50" relative="1" as="geometry">
            <mxPoint x="-611.62" y="740" as="sourcePoint" />
            <mxPoint x="-618.37" y="470" as="targetPoint" />
          </mxGeometry>
        </mxCell>
        <mxCell id="pZIEth1zFZQmeEKXRvTX-4" value="mnt_child" style="edgeLabel;html=1;align=center;verticalAlign=middle;resizable=0;points=[];" parent="pZIEth1zFZQmeEKXRvTX-3" vertex="1" connectable="0">
          <mxGeometry x="-0.7856" y="-2" relative="1" as="geometry">
            <mxPoint as="offset" />
          </mxGeometry>
        </mxCell>
        <mxCell id="pZIEth1zFZQmeEKXRvTX-5" value="mnt_mounts" style="edgeLabel;html=1;align=center;verticalAlign=middle;resizable=0;points=[];" parent="pZIEth1zFZQmeEKXRvTX-3" vertex="1" connectable="0">
          <mxGeometry x="0.7556" relative="1" as="geometry">
            <mxPoint as="offset" />
          </mxGeometry>
        </mxCell>
      </root>
    </mxGraphModel>
  </diagram>
</mxfile>
